<?xml version="1.0" encoding="UTF-8"?>
<!DOCTYPE svg PUBLIC "-//W3C//DTD SVG 1.1//EN" "http://www.w3.org/Graphics/SVG/1.1/DTD/svg11.dtd">
<svg xmlns="http://www.w3.org/2000/svg" version="1.1" width="820px" height="297px" style="shape-rendering:geometricPrecision; text-rendering:geometricPrecision; image-rendering:optimizeQuality; fill-rule:evenodd; clip-rule:evenodd" xmlns:xlink="http://www.w3.org/1999/xlink">
<g><path style="opacity:1" fill="#f5f5f5" d="M -0.5,-0.5 C 272.833,-0.5 546.167,-0.5 819.5,-0.5C 819.5,98.5 819.5,197.5 819.5,296.5C 546.167,296.5 272.833,296.5 -0.5,296.5C -0.5,197.5 -0.5,98.5 -0.5,-0.5 Z"/></g>
<g><path style="opacity:1" fill="#e6aa60" d="M 594.5,42.5 C 596.126,47.0082 597.126,51.6748 597.5,56.5C 596.037,51.6524 594.037,46.819 591.5,42C 589.432,41.3131 587.432,41.4798 585.5,42.5C 583.394,47.5447 581.727,52.7114 580.5,58C 577.446,58.8214 574.446,58.6548 571.5,57.5C 569.694,54.3591 568.361,51.0257 567.5,47.5C 568.5,48.1667 569.5,48.8333 570.5,49.5C 570.5,49.8333 570.5,50.1667 570.5,50.5C 570.661,56.4872 573.661,58.6539 579.5,57C 580.287,53.5452 580.954,50.0452 581.5,46.5C 582.757,40.4201 586.423,38.2534 592.5,40C 593.066,40.9947 593.733,41.828 594.5,42.5 Z"/></g>
<g><path style="opacity:1" fill="#fcedda" d="M 622.5,61.5 C 621.833,56.1667 621.167,50.8333 620.5,45.5C 617.877,43.7345 614.877,43.0679 611.5,43.5C 611.5,42.5 611.5,41.5 611.5,40.5C 615.125,41.0625 618.625,42.0625 622,43.5C 622.499,49.4908 622.666,55.4908 622.5,61.5 Z"/></g>
<g><path style="opacity:1" fill="#e6af69" d="M 567.5,47.5 C 560.606,42.5287 556.939,44.362 556.5,53C 556.999,56.4899 557.332,59.9899 557.5,63.5C 551.344,66.0767 547.011,64.4101 544.5,58.5C 545.167,58.8333 545.833,59.1667 546.5,59.5C 548.817,63.5825 552.15,64.5825 556.5,62.5C 555.1,56.4173 555.267,50.4173 557,44.5C 561.91,41.099 565.41,42.099 567.5,47.5 Z"/></g>
<g><path style="opacity:1" fill="#fdefdc" d="M 570.5,49.5 C 569.5,48.8333 568.5,48.1667 567.5,47.5C 565.41,42.099 561.91,41.099 557,44.5C 555.267,50.4173 555.1,56.4173 556.5,62.5C 552.15,64.5825 548.817,63.5825 546.5,59.5C 548.607,59.7221 550.274,60.7221 551.5,62.5C 552.167,62.1667 552.833,61.8333 553.5,61.5C 554.167,55.5 554.833,49.5 555.5,43.5C 556.931,43.0234 558.264,42.3567 559.5,41.5C 561.5,40.1667 563.5,40.1667 565.5,41.5C 567.698,43.9078 569.364,46.5745 570.5,49.5 Z"/></g>
<g><path style="opacity:1" fill="#ecbc7e" d="M 620.5,45.5 C 621.167,50.8333 621.833,56.1667 622.5,61.5C 622.833,62.1667 623.167,62.8333 623.5,63.5C 622.504,63.5858 621.671,63.2524 621,62.5C 620.501,56.8431 620.334,51.1764 620.5,45.5 Z"/></g>
<g><path style="opacity:1" fill="#eaa144" d="M 544.5,58.5 C 547.011,64.4101 551.344,66.0767 557.5,63.5C 558.097,64.1386 558.93,64.472 560,64.5C 563.998,62.8955 568.165,62.2288 572.5,62.5C 572.5,62.8333 572.5,63.1667 572.5,63.5C 564.826,63.9623 557.826,66.2956 551.5,70.5C 546.123,71.5576 541.79,74.2242 538.5,78.5C 536.589,79.075 534.922,80.075 533.5,81.5C 532.402,82.6009 532.235,83.9343 533,85.5C 535.037,87.7059 537.203,89.7059 539.5,91.5C 541.235,93.2351 543.235,94.5684 545.5,95.5C 547.499,94.4924 549.166,93.159 550.5,91.5C 565.832,81.7211 582.499,78.3877 600.5,81.5C 600.833,81.5 601.167,81.5 601.5,81.5C 607.755,83.0323 613.755,85.3656 619.5,88.5C 619.721,89.7348 620.388,90.7348 621.5,91.5C 620.833,91.8333 620.167,92.1667 619.5,92.5C 615.563,89.6305 611.23,87.7971 606.5,87C 603.304,86.1955 600.304,86.3622 597.5,87.5C 596.835,90.3138 596.502,93.3138 596.5,96.5C 597.167,106.505 597.834,116.505 598.5,126.5C 593.672,125.501 589.005,125.501 584.5,126.5C 584.167,126.5 583.833,126.5 583.5,126.5C 581.833,126.5 580.167,126.5 578.5,126.5C 579.032,120.848 579.365,115.181 579.5,109.5C 579.5,102.167 579.5,94.8333 579.5,87.5C 575.098,87.3082 571.098,88.3082 567.5,90.5C 563.073,92.2122 558.74,94.2122 554.5,96.5C 550.229,99.1009 546.563,102.434 543.5,106.5C 541.353,107.932 541.02,109.765 542.5,112C 549.597,114.926 556.597,118.092 563.5,121.5C 566.337,123.967 569.671,125.633 573.5,126.5C 574.833,127.167 576.167,127.833 577.5,128.5C 568.897,134.953 565.564,143.62 567.5,154.5C 566.835,152.631 566.169,150.631 565.5,148.5C 564.267,152.398 561.601,154.398 557.5,154.5C 558.976,152.5 560.809,150.833 563,149.5C 563.781,148.056 563.614,146.723 562.5,145.5C 554.736,139.723 546.736,134.389 538.5,129.5C 536.683,127.158 534.35,125.991 531.5,126C 529.861,129.259 528.694,132.759 528,136.5C 527.333,143.833 527.333,151.167 528,158.5C 528.902,160.927 529.736,163.26 530.5,165.5C 530.33,166.822 530.663,167.989 531.5,169C 534.095,169.6 536.429,169.1 538.5,167.5C 536.183,171.582 532.85,172.582 528.5,170.5C 528.5,172.5 528.5,174.5 528.5,176.5C 528.167,176.5 527.833,176.5 527.5,176.5C 527.771,174.62 527.104,173.287 525.5,172.5C 524.054,171.387 522.387,171.22 520.5,172C 517.719,172.522 515.385,173.689 513.5,175.5C 512.178,175.33 511.011,175.663 510,176.5C 509.22,178.387 509.387,180.054 510.5,181.5C 512.576,186.651 514.91,191.651 517.5,196.5C 519.222,201.362 518.055,202.362 514,199.5C 508.532,202.171 502.698,203.171 496.5,202.5C 493.793,200.717 493.127,198.383 494.5,195.5C 495.167,195.167 495.833,194.833 496.5,194.5C 498.5,193.167 500.167,191.5 501.5,189.5C 501.5,189.167 501.5,188.833 501.5,188.5C 505.92,187.068 506.587,184.568 503.5,181C 498.167,180.667 492.833,180.333 487.5,180C 486.244,179.583 485.577,178.75 485.5,177.5C 485.338,175.473 485.505,173.473 486,171.5C 488.328,170.336 490.162,168.67 491.5,166.5C 492.167,165.833 492.833,165.167 493.5,164.5C 495.117,163.962 496.784,163.629 498.5,163.5C 499.82,158.093 497.82,155.426 492.5,155.5C 489.347,154.005 486.181,152.338 483,150.5C 482.278,147.739 482.445,145.073 483.5,142.5C 488.009,140.54 492.675,139.207 497.5,138.5C 501.248,132.66 499.581,129.66 492.5,129.5C 490.031,128.431 487.698,127.098 485.5,125.5C 482.789,122.131 483.122,118.964 486.5,116C 492.348,115.827 498.015,115.327 503.5,114.5C 504.366,112.856 504.866,111.189 505,109.5C 501.667,106.998 498.501,104.332 495.5,101.5C 495.08,99.9064 494.414,98.4064 493.5,97C 494.632,95.2355 495.632,93.4021 496.5,91.5C 501.186,92.0373 505.853,92.704 510.5,93.5C 514.142,94.912 516.475,93.5787 517.5,89.5C 516.324,86.4707 514.657,83.8041 512.5,81.5C 509.2,76.6814 509.866,72.6814 514.5,69.5C 520.182,70.5894 525.349,72.9227 530,76.5C 532.475,76.0158 534.308,74.6825 535.5,72.5C 532.145,67.3135 530.812,61.6469 531.5,55.5C 536.808,52.2949 541.142,53.2949 544.5,58.5 Z"/></g>
<g><path style="opacity:1" fill="#fceacf" d="M 594.5,42.5 C 597.738,46.0406 599.072,50.3739 598.5,55.5C 600.621,55.6747 602.621,55.3414 604.5,54.5C 604.5,55.5 604.5,56.5 604.5,57.5C 602.5,57.5 600.5,57.5 598.5,57.5C 597.833,57.5 597.5,57.1667 597.5,56.5C 597.126,51.6748 596.126,47.0082 594.5,42.5 Z"/></g>
<g><path style="opacity:1" fill="#e7aa5e" d="M 645.5,55.5 C 646.09,60.6401 645.09,65.3068 642.5,69.5C 645.479,52.021 641.146,50.1876 629.5,64C 627.443,66.0807 625.777,65.914 624.5,63.5C 627.815,63.0283 630.149,61.195 631.5,58C 633.411,56.5041 635.411,55.1708 637.5,54C 640.438,53.2879 643.104,53.7879 645.5,55.5 Z"/></g>
<g><path style="opacity:1" fill="#e1aa65" d="M 586.5,66.5 C 585.791,67.404 584.791,67.7373 583.5,67.5C 583.5,70.8333 583.5,74.1667 583.5,77.5C 582.5,77.5 581.5,77.5 580.5,77.5C 580.5,74.1667 580.5,70.8333 580.5,67.5C 578.712,67.7852 577.045,67.4519 575.5,66.5C 575.709,65.914 576.043,65.414 576.5,65C 578.167,64.8333 579.833,64.6667 581.5,64.5C 583.64,64.5561 585.306,65.2227 586.5,66.5 Z"/></g>
<g><path style="opacity:1" fill="#fbf2e5" d="M 597.5,62.5 C 600.906,62.9555 604.239,63.6222 607.5,64.5C 607.5,65.5 607.5,66.5 607.5,67.5C 606.095,71.3852 605.095,75.3852 604.5,79.5C 604.179,81.0481 603.179,81.7148 601.5,81.5C 601.167,81.5 600.833,81.5 600.5,81.5C 600.389,80.8826 600.056,80.3826 599.5,80C 600.416,79.7216 601.082,79.2216 601.5,78.5C 599.33,60.7668 594.997,60.1001 588.5,76.5C 589.325,77.3857 590.325,77.719 591.5,77.5C 593.867,75.9277 595.867,76.261 597.5,78.5C 595.167,78.8333 592.833,79.1667 590.5,79.5C 587.731,79.4714 585.397,78.8048 583.5,77.5C 583.5,74.1667 583.5,70.8333 583.5,67.5C 584.791,67.7373 585.791,67.404 586.5,66.5C 587.434,65.4324 587.768,64.099 587.5,62.5C 590.833,62.5 594.167,62.5 597.5,62.5 Z"/></g>
<g><path style="opacity:1" fill="#fcecd4" d="M 607.5,64.5 C 608.5,64.5 609.5,64.5 610.5,64.5C 619.357,67.3448 627.69,71.3448 635.5,76.5C 633.379,78.7336 630.712,80.2336 627.5,81C 625.18,83.4773 623.513,86.3106 622.5,89.5C 621.391,89.4431 620.391,89.1098 619.5,88.5C 613.755,85.3656 607.755,83.0323 601.5,81.5C 603.179,81.7148 604.179,81.0481 604.5,79.5C 605.5,79.5 606.5,79.5 607.5,79.5C 607.263,78.209 607.596,77.209 608.5,76.5C 610.512,78.133 612.179,80.133 613.5,82.5C 614.466,80.604 614.799,78.604 614.5,76.5C 614.842,75.6618 615.508,75.3284 616.5,75.5C 617.143,69.1024 614.143,66.4358 607.5,67.5C 607.5,66.5 607.5,65.5 607.5,64.5 Z"/></g>
<g><path style="opacity:1" fill="#f8f4ed" d="M 621.5,71.5 C 623.09,75.7143 622.757,79.7143 620.5,83.5C 618.545,84.3235 616.545,84.4901 614.5,84C 616.314,81.5185 616.98,78.6852 616.5,75.5C 618.164,74.0512 618.998,72.0512 619,69.5C 619.995,70.0659 620.828,70.7326 621.5,71.5 Z"/></g>
<g><path style="opacity:1" fill="#eba041" d="M 597.5,56.5 C 597.5,57.1667 597.833,57.5 598.5,57.5C 605.097,60.2597 608.097,57.9263 607.5,50.5C 608.569,48.0313 609.902,45.6979 611.5,43.5C 614.877,43.0679 617.877,43.7345 620.5,45.5C 620.334,51.1764 620.501,56.8431 621,62.5C 621.671,63.2524 622.504,63.5858 623.5,63.5C 623.833,63.5 624.167,63.5 624.5,63.5C 625.777,65.914 627.443,66.0807 629.5,64C 641.146,50.1876 645.479,52.021 642.5,69.5C 642.167,70.8333 641.833,72.1667 641.5,73.5C 642.618,76.0805 644.618,77.7472 647.5,78.5C 651.05,76.0223 654.716,73.689 658.5,71.5C 660.045,70.5481 661.712,70.2148 663.5,70.5C 665.352,71.5198 666.685,73.0198 667.5,75C 666.153,79.8157 663.82,83.9824 660.5,87.5C 659.001,88.6782 658.001,90.3449 657.5,92.5C 655.159,88.8497 652.159,87.8497 648.5,89.5C 645.203,92.2956 642.036,95.2956 639,98.5C 638.22,100.387 638.387,102.054 639.5,103.5C 645.357,109.872 649.69,117.205 652.5,125.5C 653.15,127.435 653.483,129.435 653.5,131.5C 654.418,142.331 654.751,152.997 654.5,163.5C 659.577,167.382 665.243,168.715 671.5,167.5C 672.866,164.308 673.699,160.974 674,157.5C 674.5,150.174 674.666,142.841 674.5,135.5C 673.743,129.215 672.41,123.049 670.5,117C 670.833,116.167 671.167,115.333 671.5,114.5C 677.276,116.395 683.276,117.061 689.5,116.5C 690.167,116.5 690.833,116.5 691.5,116.5C 692.372,119.579 692.372,122.579 691.5,125.5C 688.118,128.524 684.118,130.524 679.5,131.5C 679.5,134.167 679.5,136.833 679.5,139.5C 680.058,140.79 681.058,141.623 682.5,142C 686.657,142.313 690.657,143.147 694.5,144.5C 694.799,146.604 694.466,148.604 693.5,150.5C 691.511,151.632 689.844,152.965 688.5,154.5C 685.609,155.403 682.609,155.736 679.5,155.5C 678.964,158.698 679.631,161.365 681.5,163.5C 684.009,164.921 686.343,166.588 688.5,168.5C 689.174,170.024 690.174,171.358 691.5,172.5C 690.652,174.409 690.318,176.409 690.5,178.5C 684.642,178.178 678.975,178.511 673.5,179.5C 672.986,181.366 672.32,183.2 671.5,185C 673.094,187.101 675.094,188.601 677.5,189.5C 679.252,191.246 680.585,193.246 681.5,195.5C 681.833,196.833 682.167,198.167 682.5,199.5C 680.952,199.821 680.285,200.821 680.5,202.5C 674.551,203.006 668.884,202.006 663.5,199.5C 661.085,199.719 660.085,201.052 660.5,203.5C 659.766,204.708 659.433,206.041 659.5,207.5C 660.08,209.749 661.413,211.415 663.5,212.5C 664.674,213.514 665.34,214.847 665.5,216.5C 665.5,218.5 665.5,220.5 665.5,222.5C 661.884,226.145 657.884,226.478 653.5,223.5C 653.167,222.833 652.833,222.167 652.5,221.5C 650.807,218.318 648.141,216.652 644.5,216.5C 644.433,215.041 644.766,213.708 645.5,212.5C 654.481,203.865 661.481,193.865 666.5,182.5C 668.246,180.466 668.58,178.299 667.5,176C 662.931,174.217 658.265,172.717 653.5,171.5C 651.971,171.529 650.804,172.196 650,173.5C 648.571,178.268 646.404,182.602 643.5,186.5C 640.939,188.64 638.605,190.973 636.5,193.5C 636.44,192.957 636.107,192.624 635.5,192.5C 634.167,193.833 632.833,195.167 631.5,196.5C 631.167,196 630.833,195.5 630.5,195C 632.399,192.611 634.066,190.111 635.5,187.5C 636.853,185.872 636.519,184.538 634.5,183.5C 627.351,177.925 619.351,173.925 610.5,171.5C 609.395,170.4 608.062,169.733 606.5,169.5C 605.426,168.115 604.093,166.949 602.5,166C 604.241,164.38 606.075,162.88 608,161.5C 610.57,155.591 611.07,149.591 609.5,143.5C 609.657,142.127 609.49,140.793 609,139.5C 606.85,135.497 604.016,132.164 600.5,129.5C 602.659,127.66 605.325,126.493 608.5,126C 610.319,125.26 611.652,124.093 612.5,122.5C 613.514,121.326 614.847,120.66 616.5,120.5C 618.604,120.799 620.604,120.466 622.5,119.5C 627.068,116.179 631.901,113.512 637,111.5C 637.667,110.167 637.667,108.833 637,107.5C 634.234,104.223 631.067,101.557 627.5,99.5C 625.973,99.573 624.973,98.9063 624.5,97.5C 624.34,95.8008 624.506,94.1341 625,92.5C 625.671,93.2524 626.504,93.5858 627.5,93.5C 628.594,94.5817 629.927,95.2483 631.5,95.5C 633.807,94.509 635.807,93.1757 637.5,91.5C 639.797,89.7059 641.963,87.7059 644,85.5C 644.765,83.9343 644.598,82.6009 643.5,81.5C 640.833,79.8333 638.167,78.1667 635.5,76.5C 627.69,71.3448 619.357,67.3448 610.5,64.5C 610.389,63.8826 610.056,63.3826 609.5,63C 597.238,59.9205 584.904,59.7538 572.5,62.5C 568.165,62.2288 563.998,62.8955 560,64.5C 558.93,64.472 558.097,64.1386 557.5,63.5C 557.332,59.9899 556.999,56.4899 556.5,53C 556.939,44.362 560.606,42.5287 567.5,47.5C 568.361,51.0257 569.694,54.3591 571.5,57.5C 574.446,58.6548 577.446,58.8214 580.5,58C 581.727,52.7114 583.394,47.5447 585.5,42.5C 587.432,41.4798 589.432,41.3131 591.5,42C 594.037,46.819 596.037,51.6524 597.5,56.5 Z"/></g>
<g><path style="opacity:1" fill="#e4ab62" d="M 610.5,64.5 C 609.5,64.5 608.5,64.5 607.5,64.5C 604.239,63.6222 600.906,62.9555 597.5,62.5C 589.254,61.1994 580.921,61.5327 572.5,63.5C 572.5,63.1667 572.5,62.8333 572.5,62.5C 584.904,59.7538 597.238,59.9205 609.5,63C 610.056,63.3826 610.389,63.8826 610.5,64.5 Z"/></g>
<g><path style="opacity:1" fill="#e5ab60" d="M 607.5,50.5 C 608.097,57.9263 605.097,60.2597 598.5,57.5C 600.5,57.5 602.5,57.5 604.5,57.5C 604.5,56.5 604.5,55.5 604.5,54.5C 605.143,52.9236 606.143,51.5903 607.5,50.5 Z"/></g>
<g><path style="opacity:1" fill="#fbe6ca" d="M 581.5,46.5 C 580.954,50.0452 580.287,53.5452 579.5,57C 573.661,58.6539 570.661,56.4872 570.5,50.5C 572.258,52.1407 573.758,54.1407 575,56.5C 576.011,55.6634 577.178,55.33 578.5,55.5C 578.337,53.1432 578.503,50.8098 579,48.5C 579.417,47.244 580.25,46.5774 581.5,46.5 Z"/></g>
<g><path style="opacity:1" fill="#fcebd3" d="M 531.5,55.5 C 530.812,61.6469 532.145,67.3135 535.5,72.5C 534.308,74.6825 532.475,76.0158 530,76.5C 525.349,72.9227 520.182,70.5894 514.5,69.5C 516.628,68.3709 518.961,68.2042 521.5,69C 524.932,71.3827 528.599,73.216 532.5,74.5C 531.842,70.1709 531.176,65.8376 530.5,61.5C 530.505,59.3035 530.838,57.3035 531.5,55.5 Z"/></g>
<g><path style="opacity:1" fill="#fae3c0" d="M 551.5,70.5 C 551.389,71.1174 551.056,71.6174 550.5,72C 551.737,72.2321 552.737,72.7321 553.5,73.5C 549.399,73.2016 546.733,74.8682 545.5,78.5C 544.844,77.7222 544.011,77.0556 543,76.5C 541.594,77.4138 540.094,78.0805 538.5,78.5C 541.79,74.2242 546.123,71.5576 551.5,70.5 Z"/></g>
<g><path style="opacity:1" fill="#e2a962" d="M 601.5,78.5 C 599.331,77.2186 596.997,76.2186 594.5,75.5C 592.97,75.6399 591.97,76.3065 591.5,77.5C 590.325,77.719 589.325,77.3857 588.5,76.5C 594.997,60.1001 599.33,60.7668 601.5,78.5 Z"/></g>
<g><path style="opacity:1" fill="#fce1b3" d="M 595.5,68.5 C 596.931,69.7804 597.598,71.4471 597.5,73.5C 596.022,73.762 594.689,73.4287 593.5,72.5C 594.18,71.1401 594.847,69.8068 595.5,68.5 Z"/></g>
<g><path style="opacity:1" fill="#e3a85e" d="M 607.5,67.5 C 614.143,66.4358 617.143,69.1024 616.5,75.5C 615.508,75.3284 614.842,75.6618 614.5,76.5C 613.71,77.6085 613.21,78.9419 613,80.5C 612.598,79.1279 612.098,77.7946 611.5,76.5C 610.386,75.2241 609.386,75.2241 608.5,76.5C 607.596,77.209 607.263,78.209 607.5,79.5C 606.5,79.5 605.5,79.5 604.5,79.5C 605.095,75.3852 606.095,71.3852 607.5,67.5 Z"/></g>
<g><path style="opacity:1" fill="#ffecca" d="M 609.5,70.5 C 610.833,70.5 612.167,70.5 613.5,70.5C 613.5,71.5 613.5,72.5 613.5,73.5C 612.167,73.5 610.833,73.5 609.5,73.5C 609.5,72.5 609.5,71.5 609.5,70.5 Z"/></g>
<g><path style="opacity:1" fill="#fce7c7" d="M 645.5,55.5 C 647.23,61.2131 646.563,66.7131 643.5,72C 643.645,72.772 643.978,73.4387 644.5,74C 646.473,74.4955 648.473,74.6621 650.5,74.5C 649.685,75.8366 648.518,76.8366 647,77.5C 645.226,76.035 643.392,74.7017 641.5,73.5C 641.833,72.1667 642.167,70.8333 642.5,69.5C 645.09,65.3068 646.09,60.6401 645.5,55.5 Z"/></g>
<g><path style="opacity:1" fill="#e5a85b" d="M 663.5,70.5 C 661.712,70.2148 660.045,70.5481 658.5,71.5C 654.716,73.689 651.05,76.0223 647.5,78.5C 644.618,77.7472 642.618,76.0805 641.5,73.5C 643.392,74.7017 645.226,76.035 647,77.5C 648.518,76.8366 649.685,75.8366 650.5,74.5C 652.805,73.0106 655.138,71.5106 657.5,70C 659.712,69.2109 661.712,69.3775 663.5,70.5 Z"/></g>
<g><path style="opacity:1" fill="#e3aa61" d="M 553.5,73.5 C 554.458,73.9528 555.292,74.6195 556,75.5C 556.131,79.0557 557.298,82.0557 559.5,84.5C 557.071,84.415 555.071,83.415 553.5,81.5C 551.043,83.0009 551.043,84.6676 553.5,86.5C 552.192,87.6256 550.858,87.6256 549.5,86.5C 548.692,83.5498 547.358,80.8831 545.5,78.5C 546.733,74.8682 549.399,73.2016 553.5,73.5 Z"/></g>
<g><path style="opacity:1" fill="#fcecd4" d="M 597.5,62.5 C 594.167,62.5 590.833,62.5 587.5,62.5C 587.768,64.099 587.434,65.4324 586.5,66.5C 585.306,65.2227 583.64,64.5561 581.5,64.5C 579.833,64.6667 578.167,64.8333 576.5,65C 576.043,65.414 575.709,65.914 575.5,66.5C 577.045,67.4519 578.712,67.7852 580.5,67.5C 580.5,70.8333 580.5,74.1667 580.5,77.5C 581.5,77.5 582.5,77.5 583.5,77.5C 585.397,78.8048 587.731,79.4714 590.5,79.5C 592.833,79.1667 595.167,78.8333 597.5,78.5C 595.867,76.261 593.867,75.9277 591.5,77.5C 591.97,76.3065 592.97,75.6399 594.5,75.5C 596.997,76.2186 599.331,77.2186 601.5,78.5C 601.082,79.2216 600.416,79.7216 599.5,80C 600.056,80.3826 600.389,80.8826 600.5,81.5C 582.499,78.3877 565.832,81.7211 550.5,91.5C 549.962,89.8828 549.629,88.2161 549.5,86.5C 550.858,87.6256 552.192,87.6256 553.5,86.5C 551.043,84.6676 551.043,83.0009 553.5,81.5C 555.071,83.415 557.071,84.415 559.5,84.5C 557.298,82.0557 556.131,79.0557 556,75.5C 555.292,74.6195 554.458,73.9528 553.5,73.5C 552.737,72.7321 551.737,72.2321 550.5,72C 551.056,71.6174 551.389,71.1174 551.5,70.5C 557.826,66.2956 564.826,63.9623 572.5,63.5C 580.921,61.5327 589.254,61.1994 597.5,62.5 Z"/></g>
<g><path style="opacity:1" fill="#dea965" d="M 573.5,77.5 C 564.693,83.2391 560.527,80.9058 561,70.5C 569.511,64.8491 573.678,67.1824 573.5,77.5 Z"/></g>
<g><path style="opacity:1" fill="#fee8c9" d="M 564.5,71.5 C 564.5,73.1667 564.5,74.8333 564.5,76.5C 566.5,76.5 568.5,76.5 570.5,76.5C 568.935,78.7188 566.935,79.0521 564.5,77.5C 563.207,75.3635 563.207,73.3635 564.5,71.5 Z"/></g>
<g><path style="opacity:1" fill="#f8f5f1" d="M 564.5,71.5 C 568.56,70.8482 570.56,72.5149 570.5,76.5C 568.5,76.5 566.5,76.5 564.5,76.5C 564.5,74.8333 564.5,73.1667 564.5,71.5 Z"/></g>
<g><path style="opacity:1" fill="#fce6c9" d="M 570.5,76.5 C 570.56,72.5149 568.56,70.8482 564.5,71.5C 565.659,69.6231 567.326,69.1231 569.5,70C 571.608,72.0164 571.942,74.1831 570.5,76.5 Z"/></g>
<g><path style="opacity:1" fill="#f7f5f3" d="M 573.5,77.5 C 574.477,74.7131 574.81,71.7131 574.5,68.5C 575.833,68.5 577.167,68.5 578.5,68.5C 578.249,71.909 578.583,75.2423 579.5,78.5C 577.473,80.339 575.14,80.839 572.5,80C 573.252,79.3292 573.586,78.4959 573.5,77.5 Z"/></g>
<g><path style="opacity:1" fill="#e0ab67" d="M 621.5,71.5 C 622.496,71.4142 623.329,71.7476 624,72.5C 624.494,74.1341 624.66,75.8008 624.5,77.5C 626.6,77.5228 628.433,76.8561 630,75.5C 631.059,75.6301 631.892,76.1301 632.5,77C 630.779,78.5272 628.779,79.5272 626.5,80C 624.457,81.8114 622.957,83.978 622,86.5C 620.961,85.7562 620.461,84.7562 620.5,83.5C 622.757,79.7143 623.09,75.7143 621.5,71.5 Z"/></g>
<g><path style="opacity:1" fill="#f9f2ea" d="M 545.5,78.5 C 547.358,80.8831 548.692,83.5498 549.5,86.5C 549.629,88.2161 549.962,89.8828 550.5,91.5C 549.166,93.159 547.499,94.4924 545.5,95.5C 543.235,94.5684 541.235,93.2351 539.5,91.5C 538.287,88.7746 536.454,86.4412 534,84.5C 533.517,83.552 533.351,82.552 533.5,81.5C 534.922,80.075 536.589,79.075 538.5,78.5C 540.094,78.0805 541.594,77.4138 543,76.5C 544.011,77.0556 544.844,77.7222 545.5,78.5 Z"/></g>
<g><path style="opacity:1" fill="#fee7c2" d="M 549.5,76.5 C 550.833,76.5 552.167,76.5 553.5,76.5C 553.55,78.5901 552.55,79.9234 550.5,80.5C 549.571,79.3112 549.238,77.9778 549.5,76.5 Z"/></g>
<g><path style="opacity:1" fill="#f8f3ed" d="M 635.5,76.5 C 638.167,78.1667 640.833,79.8333 643.5,81.5C 643.649,82.552 643.483,83.552 643,84.5C 640.546,86.4412 638.713,88.7746 637.5,91.5C 635.807,93.1757 633.807,94.509 631.5,95.5C 629.927,95.2483 628.594,94.5817 627.5,93.5C 626.016,91.9263 624.349,90.593 622.5,89.5C 623.513,86.3106 625.18,83.4773 627.5,81C 630.712,80.2336 633.379,78.7336 635.5,76.5 Z"/></g>
<g><path style="opacity:1" fill="#e6bc86" d="M 608.5,76.5 C 609.386,75.2241 610.386,75.2241 611.5,76.5C 612.098,77.7946 612.598,79.1279 613,80.5C 613.21,78.9419 613.71,77.6085 614.5,76.5C 614.799,78.604 614.466,80.604 613.5,82.5C 612.179,80.133 610.512,78.133 608.5,76.5 Z"/></g>
<g><path style="opacity:1" fill="#e4ab62" d="M 533.5,81.5 C 533.351,82.552 533.517,83.552 534,84.5C 536.454,86.4412 538.287,88.7746 539.5,91.5C 537.203,89.7059 535.037,87.7059 533,85.5C 532.235,83.9343 532.402,82.6009 533.5,81.5 Z"/></g>
<g><path style="opacity:1" fill="#fcedd7" d="M 512.5,81.5 C 514.657,83.8041 516.324,86.4707 517.5,89.5C 516.475,93.5787 514.142,94.912 510.5,93.5C 510.5,93.1667 510.5,92.8333 510.5,92.5C 511.833,92.5 513.167,92.5 514.5,92.5C 514.369,88.715 513.702,85.0483 512.5,81.5 Z"/></g>
<g><path style="opacity:1" fill="#f6f5f3" d="M 611.5,91.5 C 615.984,93.2429 620.317,95.2429 624.5,97.5C 624.973,98.9063 625.973,99.573 627.5,99.5C 629.833,102.167 632.167,104.833 634.5,107.5C 634.5,108.5 634.5,109.5 634.5,110.5C 630.126,111.845 625.793,113.512 621.5,115.5C 620.007,116.141 619.007,117.141 618.5,118.5C 617.833,119.167 617.167,119.833 616.5,120.5C 614.847,120.66 613.514,121.326 612.5,122.5C 611.833,122.5 611.167,122.5 610.5,122.5C 607.068,122.757 603.734,123.424 600.5,124.5C 600.87,112.383 600.203,100.383 598.5,88.5C 602.699,89.966 607.033,90.966 611.5,91.5 Z"/></g>
<g><path style="opacity:1" fill="#f7f5f2" d="M 563.5,121.5 C 556.597,118.092 549.597,114.926 542.5,112C 541.02,109.765 541.353,107.932 543.5,106.5C 547.771,103.899 551.437,100.566 554.5,96.5C 558.74,94.2122 563.073,92.2122 567.5,90.5C 571.167,89.8333 574.833,89.1667 578.5,88.5C 577.833,100.5 577.167,112.5 576.5,124.5C 572.269,123.385 567.936,122.385 563.5,121.5 Z"/></g>
<g><path style="opacity:1" fill="#e7b26f" d="M 643.5,81.5 C 644.598,82.6009 644.765,83.9343 644,85.5C 641.963,87.7059 639.797,89.7059 637.5,91.5C 638.713,88.7746 640.546,86.4412 643,84.5C 643.483,83.552 643.649,82.552 643.5,81.5 Z"/></g>
<g><path style="opacity:1" fill="#e4b170" d="M 496.5,91.5 C 498.607,90.5318 500.941,90.1984 503.5,90.5C 505.599,91.6118 507.933,92.2785 510.5,92.5C 510.5,92.8333 510.5,93.1667 510.5,93.5C 505.853,92.704 501.186,92.0373 496.5,91.5 Z"/></g>
<g><path style="opacity:1" fill="#f7f5f2" d="M 529.5,90.5 C 533.552,93.5499 536.885,97.2166 539.5,101.5C 534.633,106.372 530.966,112.038 528.5,118.5C 526.313,122.217 524.646,126.217 523.5,130.5C 522.85,130.804 522.183,131.137 521.5,131.5C 520.346,142.501 520.346,153.501 521.5,164.5C 516.412,167.319 511.078,168.319 505.5,167.5C 505.167,164.833 504.833,162.167 504.5,159.5C 504.428,148.817 504.762,138.15 505.5,127.5C 510.218,118.6 514.385,109.266 518,99.5C 521.185,95.4591 525.019,92.4591 529.5,90.5 Z"/></g>
<g><path style="opacity:1" fill="#f6f5f3" d="M 657.5,97.5 C 659.587,98.5846 660.92,100.251 661.5,102.5C 662.468,105.1 663.801,107.434 665.5,109.5C 666.167,109.5 666.5,109.833 666.5,110.5C 668.943,115.939 670.61,121.606 671.5,127.5C 673.159,140.592 672.826,153.592 670.5,166.5C 665.636,166.999 661.136,165.999 657,163.5C 656.832,152.152 656.332,140.819 655.5,129.5C 654.85,127.816 653.85,126.483 652.5,125.5C 649.69,117.205 645.357,109.872 639.5,103.5C 639.343,102.127 639.51,100.793 640,99.5C 642.833,96.6667 645.667,93.8333 648.5,91C 649.5,90.3333 650.5,90.3333 651.5,91C 652.998,93.6637 654.998,95.8304 657.5,97.5 Z"/></g>
<g><path style="opacity:1" fill="#e7a655" d="M 597.5,87.5 C 600.304,86.3622 603.304,86.1955 606.5,87C 611.23,87.7971 615.563,89.6305 619.5,92.5C 620.167,92.1667 620.833,91.8333 621.5,91.5C 620.388,90.7348 619.721,89.7348 619.5,88.5C 620.391,89.1098 621.391,89.4431 622.5,89.5C 624.349,90.593 626.016,91.9263 627.5,93.5C 626.504,93.5858 625.671,93.2524 625,92.5C 624.506,94.1341 624.34,95.8008 624.5,97.5C 620.317,95.2429 615.984,93.2429 611.5,91.5C 611.389,90.8826 611.056,90.3826 610.5,90C 606.278,88.5536 601.945,87.7203 597.5,87.5 Z"/></g>
<g><path style="opacity:1" fill="#eba040" d="M 681.5,93.5 C 683.616,95.0881 683.949,97.0881 682.5,99.5C 679.491,102.38 676.825,105.38 674.5,108.5C 673.391,108.557 672.391,108.89 671.5,109.5C 670.839,110.718 670.172,112.051 669.5,113.5C 668.859,112.007 667.859,111.007 666.5,110.5C 666.5,109.833 666.167,109.5 665.5,109.5C 665.029,107.421 664.363,105.421 663.5,103.5C 663.038,101.243 662.038,99.2433 660.5,97.5C 664.61,97.0407 668.277,95.5407 671.5,93C 674.924,92.2534 678.257,92.42 681.5,93.5 Z"/></g>
<g><path style="opacity:1" fill="#fdeed8" d="M 503.5,90.5 C 500.941,90.1984 498.607,90.5318 496.5,91.5C 495.632,93.4021 494.632,95.2355 493.5,97C 494.414,98.4064 495.08,99.9064 495.5,101.5C 493.286,100.608 492.286,98.9418 492.5,96.5C 493.988,94.0136 494.988,91.3469 495.5,88.5C 498.553,88.1107 501.22,88.7773 503.5,90.5 Z"/></g>
<g><path style="opacity:1" fill="#fce6c6" d="M 648.5,89.5 C 649.873,89.3433 651.207,89.51 652.5,90C 654.415,92.3996 656.081,94.8996 657.5,97.5C 654.998,95.8304 652.998,93.6637 651.5,91C 650.5,90.3333 649.5,90.3333 648.5,91C 645.667,93.8333 642.833,96.6667 640,99.5C 639.51,100.793 639.343,102.127 639.5,103.5C 638.387,102.054 638.22,100.387 639,98.5C 642.036,95.2956 645.203,92.2956 648.5,89.5 Z"/></g>
<g><path style="opacity:1" fill="#e6a757" d="M 660.5,87.5 C 659.497,90.7212 660.663,93.0546 664,94.5C 669.971,91.2041 675.804,90.8707 681.5,93.5C 678.257,92.42 674.924,92.2534 671.5,93C 668.277,95.5407 664.61,97.0407 660.5,97.5C 662.038,99.2433 663.038,101.243 663.5,103.5C 662.833,103.167 662.167,102.833 661.5,102.5C 660.92,100.251 659.587,98.5846 657.5,97.5C 656.081,94.8996 654.415,92.3996 652.5,90C 651.207,89.51 649.873,89.3433 648.5,89.5C 652.159,87.8497 655.159,88.8497 657.5,92.5C 658.001,90.3449 659.001,88.6782 660.5,87.5 Z"/></g>
<g><path style="opacity:1" fill="#20477f" d="M 134.5,98.5 C 143.5,98.5 152.5,98.5 161.5,98.5C 177.456,103.725 183.623,114.725 180,131.5C 177.051,137.946 172.551,142.946 166.5,146.5C 172.632,158.089 177.632,170.089 181.5,182.5C 176.456,182.827 171.456,182.494 166.5,181.5C 164.354,176.385 162.02,171.385 159.5,166.5C 157.165,161.162 154.832,155.828 152.5,150.5C 147.025,149.511 141.358,149.178 135.5,149.5C 134.506,159.987 134.172,170.654 134.5,181.5C 130.833,181.5 127.167,181.5 123.5,181.5C 123.5,154.5 123.5,127.5 123.5,100.5C 126.518,100.665 129.518,100.498 132.5,100C 133.416,99.7216 134.082,99.2216 134.5,98.5 Z"/></g>
<g><path style="opacity:1" fill="#2f4d7a" d="M 134.5,98.5 C 134.082,99.2216 133.416,99.7216 132.5,100C 129.518,100.498 126.518,100.665 123.5,100.5C 123.5,127.5 123.5,154.5 123.5,181.5C 127.167,181.5 130.833,181.5 134.5,181.5C 134.172,170.654 134.506,159.987 135.5,149.5C 135.5,160.167 135.5,170.833 135.5,181.5C 131.167,182.833 126.833,182.833 122.5,181.5C 122.5,154.167 122.5,126.833 122.5,99.5C 126.466,98.8379 130.466,98.5045 134.5,98.5 Z"/></g>
<g><path style="opacity:1" fill="#fbe1bf" d="M 554.5,96.5 C 551.437,100.566 547.771,103.899 543.5,106.5C 546.563,102.434 550.229,99.1009 554.5,96.5 Z"/></g>
<g><path style="opacity:1" fill="#cedaeb" d="M 161.5,98.5 C 152.5,98.5 143.5,98.5 134.5,98.5C 130.466,98.5045 126.466,98.8379 122.5,99.5C 122.5,126.833 122.5,154.167 122.5,181.5C 121.167,168.183 120.501,154.517 120.5,140.5C 120.667,126.833 120.833,113.167 121,99.5C 123.447,98.5944 125.947,97.7611 128.5,97C 134,96.8333 139.5,96.6667 145,96.5C 150.876,96.5048 156.376,97.1714 161.5,98.5 Z"/></g>
<g><path style="opacity:1" fill="#f6d5aa" d="M 661.5,102.5 C 662.167,102.833 662.833,103.167 663.5,103.5C 664.363,105.421 665.029,107.421 665.5,109.5C 663.801,107.434 662.468,105.1 661.5,102.5 Z"/></g>
<g><path style="opacity:1" fill="#244980" d="M 288.5,133.5 C 283.167,133.5 277.833,133.5 272.5,133.5C 272.172,144.679 272.505,155.679 273.5,166.5C 273.511,168.017 274.177,169.184 275.5,170C 280.086,170.197 284.586,170.697 289,171.5C 289.793,175.423 289.626,179.256 288.5,183C 282.207,184.275 275.874,184.608 269.5,184C 262.361,180.902 258.861,175.402 259,167.5C 258.5,156.505 258.333,145.505 258.5,134.5C 252.761,135.927 250.428,133.76 251.5,128C 250.428,122.24 252.761,120.073 258.5,121.5C 260.414,118.316 261.08,114.649 260.5,110.5C 262.898,110.741 264.898,110.074 266.5,108.5C 268.391,107.464 270.224,107.464 272,108.5C 272.499,112.821 272.666,117.154 272.5,121.5C 277.844,121.334 283.177,121.501 288.5,122C 289.821,125.934 289.821,129.767 288.5,133.5 Z"/></g>
<g><path style="opacity:1" fill="#fdeed7" d="M 634.5,107.5 C 635.434,108.568 635.768,109.901 635.5,111.5C 629.994,114.008 624.327,116.341 618.5,118.5C 619.007,117.141 620.007,116.141 621.5,115.5C 625.793,113.512 630.126,111.845 634.5,110.5C 634.5,109.5 634.5,108.5 634.5,107.5 Z"/></g>
<g><path style="opacity:1" fill="#e0e8f3" d="M 162.5,132.5 C 160.11,135.028 157.11,136.528 153.5,137C 147.843,137.499 142.176,137.666 136.5,137.5C 136.5,128.833 136.5,120.167 136.5,111.5C 143.175,111.334 149.842,111.5 156.5,112C 165.017,114.869 167.85,120.703 165,129.5C 164.623,130.942 163.79,131.942 162.5,132.5 Z"/></g>
<g><path style="opacity:1" fill="#f5f5f6" d="M 162.5,132.5 C 154.632,134.219 146.632,134.886 138.5,134.5C 138.17,127.8 138.503,121.134 139.5,114.5C 143.7,113.863 147.866,113.196 152,112.5C 154.266,113.956 156.766,114.79 159.5,115C 164.935,119.944 165.935,125.777 162.5,132.5 Z"/></g>
<g><path style="opacity:1" fill="#405b84" d="M 266.5,108.5 C 264.898,110.074 262.898,110.741 260.5,110.5C 261.08,114.649 260.414,118.316 258.5,121.5C 258.335,117.818 258.501,114.152 259,110.5C 261.301,109.133 263.801,108.466 266.5,108.5 Z"/></g>
<g><path style="opacity:1" fill="#fcead2" d="M 529.5,90.5 C 525.019,92.4591 521.185,95.4591 518,99.5C 514.385,109.266 510.218,118.6 505.5,127.5C 505.343,126.127 505.51,124.793 506,123.5C 509.294,114.932 512.961,106.599 517,98.5C 519.833,95.6667 522.667,92.8333 525.5,90C 527.066,89.235 528.399,89.4017 529.5,90.5 Z"/></g>
<g><path style="opacity:1" fill="#e6a859" d="M 627.5,99.5 C 631.067,101.557 634.234,104.223 637,107.5C 637.667,108.833 637.667,110.167 637,111.5C 631.901,113.512 627.068,116.179 622.5,119.5C 620.604,120.466 618.604,120.799 616.5,120.5C 617.167,119.833 617.833,119.167 618.5,118.5C 624.327,116.341 629.994,114.008 635.5,111.5C 635.768,109.901 635.434,108.568 634.5,107.5C 632.167,104.833 629.833,102.167 627.5,99.5 Z"/></g>
<g><path style="opacity:1" fill="#fbe5c8" d="M 674.5,108.5 C 674.5,110.5 674.5,112.5 674.5,114.5C 680.561,114.21 686.561,114.543 692.5,115.5C 694.632,118.405 694.966,121.405 693.5,124.5C 693.889,121.447 693.223,118.78 691.5,116.5C 690.833,116.5 690.167,116.5 689.5,116.5C 684.36,115.512 679.026,115.179 673.5,115.5C 673.296,113.315 672.63,111.315 671.5,109.5C 672.391,108.89 673.391,108.557 674.5,108.5 Z"/></g>
<g><path style="opacity:1" fill="#fcecd4" d="M 579.5,109.5 C 578.203,114.62 577.369,119.954 577,125.5C 575.989,126.337 574.822,126.67 573.5,126.5C 569.671,125.633 566.337,123.967 563.5,121.5C 567.936,122.385 572.269,123.385 576.5,124.5C 577.167,112.5 577.833,100.5 578.5,88.5C 574.833,89.1667 571.167,89.8333 567.5,90.5C 571.098,88.3082 575.098,87.3082 579.5,87.5C 579.5,94.8333 579.5,102.167 579.5,109.5 Z"/></g>
<g><path style="opacity:1" fill="#f8e1c1" d="M 503.5,114.5 C 498.015,115.327 492.348,115.827 486.5,116C 483.122,118.964 482.789,122.131 485.5,125.5C 483.05,125.126 482.05,123.626 482.5,121C 482.167,118.333 483.167,116.333 485.5,115C 491.491,114.501 497.491,114.334 503.5,114.5 Z"/></g>
<g><path style="opacity:1" fill="#d4dff0" d="M 336.5,121.5 C 330.536,120.693 324.536,120.36 318.5,120.5C 323.225,118.599 328.225,118.099 333.5,119C 334.571,119.852 335.571,120.685 336.5,121.5 Z"/></g>
<g><path style="opacity:1" fill="#d6e1f1" d="M 222.5,120.5 C 213.775,119.266 205.775,120.933 198.5,125.5C 198.5,124.5 198.5,123.5 198.5,122.5C 206.395,119.508 214.395,118.842 222.5,120.5 Z"/></g>
<g><path style="opacity:1" fill="#e9bc81" d="M 691.5,116.5 C 693.223,118.78 693.889,121.447 693.5,124.5C 693.5,124.833 693.5,125.167 693.5,125.5C 692.833,125.5 692.167,125.5 691.5,125.5C 692.372,122.579 692.372,119.579 691.5,116.5 Z"/></g>
<g><path style="opacity:1" fill="#22487f" d="M 222.5,120.5 C 234.203,121.704 241.37,128.037 244,139.5C 244.667,147.5 244.667,155.5 244,163.5C 241.939,174.561 235.439,181.394 224.5,184C 210.633,186.975 200.133,182.475 193,170.5C 192.178,168.212 191.511,165.878 191,163.5C 190.333,155.167 190.333,146.833 191,138.5C 192.488,133.517 194.988,129.184 198.5,125.5C 205.775,120.933 213.775,119.266 222.5,120.5 Z"/></g>
<g><path style="opacity:1" fill="#23487f" d="M 318.5,120.5 C 324.536,120.36 330.536,120.693 336.5,121.5C 341.307,124.072 344.474,128.072 346,133.5C 346.667,149.833 346.667,166.167 346,182.5C 344.938,183.097 343.772,183.43 342.5,183.5C 339.29,182.646 336.124,181.646 333,180.5C 326.853,182.691 320.52,184.025 314,184.5C 304.616,183.786 298.949,178.786 297,169.5C 294.237,156.334 299.404,148.668 312.5,146.5C 318.81,145.846 325.143,145.346 331.5,145C 333.697,140.013 332.364,136.346 327.5,134C 320.986,133.18 314.653,133.347 308.5,134.5C 305.881,134.768 303.381,134.435 301,133.5C 300.333,130.167 300.333,126.833 301,123.5C 306.604,121.371 312.437,120.371 318.5,120.5 Z"/></g>
<g><path style="opacity:1" fill="#1d467f" d="M 374.5,122.5 C 375.302,123.952 375.802,125.618 376,127.5C 378.158,125.506 380.658,124.172 383.5,123.5C 386.482,123.037 389.482,122.704 392.5,122.5C 392.5,125.833 392.5,129.167 392.5,132.5C 390.473,132.338 388.473,132.505 386.5,133C 383.232,134.12 380.565,135.954 378.5,138.5C 377.694,139.728 376.694,140.728 375.5,141.5C 374.505,154.323 374.171,167.323 374.5,180.5C 370.833,180.5 367.167,180.5 363.5,180.5C 363.333,161.83 363.5,143.164 364,124.5C 367.149,122.638 370.649,121.971 374.5,122.5 Z"/></g>
<g><path style="opacity:1" fill="#21487f" d="M 425.5,202.5 C 418.357,202.824 411.357,202.158 404.5,200.5C 404.5,197.833 404.5,195.167 404.5,192.5C 410.176,192.666 415.843,192.499 421.5,192C 422.056,191.617 422.389,191.117 422.5,190.5C 424.606,188.281 425.606,185.615 425.5,182.5C 420.867,183.542 417.701,181.875 416,177.5C 410.859,158.939 406.359,140.273 402.5,121.5C 406.767,121.203 410.934,121.536 415,122.5C 419.323,137.819 423.656,153.153 428,168.5C 433.253,153.497 437.586,138.164 441,122.5C 445.079,121.371 449.245,121.204 453.5,122C 454.022,122.561 454.355,123.228 454.5,124C 448.789,146.233 442.955,168.4 437,190.5C 434.988,196.344 431.154,200.344 425.5,202.5 Z"/></g>
<g><path style="opacity:1" fill="#e3a759" d="M 671.5,109.5 C 672.63,111.315 673.296,113.315 673.5,115.5C 679.026,115.179 684.36,115.512 689.5,116.5C 683.276,117.061 677.276,116.395 671.5,114.5C 671.167,115.333 670.833,116.167 670.5,117C 672.41,123.049 673.743,129.215 674.5,135.5C 673.749,132.754 672.749,130.087 671.5,127.5C 670.61,121.606 668.943,115.939 666.5,110.5C 667.859,111.007 668.859,112.007 669.5,113.5C 670.172,112.051 670.839,110.718 671.5,109.5 Z"/></g>
<g><path style="opacity:1" fill="#37547f" d="M 378.5,138.5 C 380.565,135.954 383.232,134.12 386.5,133C 388.473,132.505 390.473,132.338 392.5,132.5C 392.5,129.167 392.5,125.833 392.5,122.5C 389.482,122.704 386.482,123.037 383.5,123.5C 393.41,118.566 396.91,121.566 394,132.5C 388.731,134.044 383.565,136.044 378.5,138.5 Z"/></g>
<g><path style="opacity:1" fill="#335382" d="M 374.5,122.5 C 370.649,121.971 367.149,122.638 364,124.5C 363.5,143.164 363.333,161.83 363.5,180.5C 367.167,180.5 370.833,180.5 374.5,180.5C 374.171,167.323 374.505,154.323 375.5,141.5C 375.5,155.167 375.5,168.833 375.5,182.5C 370.901,182.8 366.401,182.467 362,181.5C 361.333,161.833 361.333,142.167 362,122.5C 366.267,121.178 370.434,121.178 374.5,122.5 Z"/></g>
<g><path style="opacity:1" fill="#fdf0dc" d="M 597.5,87.5 C 601.945,87.7203 606.278,88.5536 610.5,90C 611.056,90.3826 611.389,90.8826 611.5,91.5C 607.033,90.966 602.699,89.966 598.5,88.5C 600.203,100.383 600.87,112.383 600.5,124.5C 603.734,123.424 607.068,122.757 610.5,122.5C 608.618,123.751 606.618,124.918 604.5,126C 602.888,126.72 601.388,126.554 600,125.5C 598.895,112.846 598.062,100.18 597.5,87.5 Z"/></g>
<g><path style="opacity:1" fill="#e8b36f" d="M 579.5,109.5 C 579.365,115.181 579.032,120.848 578.5,126.5C 580.167,126.5 581.833,126.5 583.5,126.5C 581.698,127.458 579.698,128.125 577.5,128.5C 576.167,127.833 574.833,127.167 573.5,126.5C 574.822,126.67 575.989,126.337 577,125.5C 577.369,119.954 578.203,114.62 579.5,109.5 Z"/></g>
<g><path style="opacity:1" fill="#e5ad66" d="M 597.5,87.5 C 598.062,100.18 598.895,112.846 600,125.5C 601.388,126.554 602.888,126.72 604.5,126C 606.618,124.918 608.618,123.751 610.5,122.5C 611.167,122.5 611.833,122.5 612.5,122.5C 611.652,124.093 610.319,125.26 608.5,126C 605.325,126.493 602.659,127.66 600.5,129.5C 595.484,127.231 590.151,126.231 584.5,126.5C 589.005,125.501 593.672,125.501 598.5,126.5C 597.834,116.505 597.167,106.505 596.5,96.5C 596.502,93.3138 596.835,90.3138 597.5,87.5 Z"/></g>
<g><path style="opacity:1" fill="#f7f4f1" d="M 538.5,129.5 C 546.736,134.389 554.736,139.723 562.5,145.5C 563.614,146.723 563.781,148.056 563,149.5C 560.809,150.833 558.976,152.5 557.5,154.5C 556.078,154.709 554.745,155.209 553.5,156C 548.431,159.854 543.431,163.687 538.5,167.5C 536.429,169.1 534.095,169.6 531.5,169C 530.663,167.989 530.33,166.822 530.5,165.5C 527.698,153.793 527.865,142.126 531,130.5C 531.833,129.5 532.667,128.5 533.5,127.5C 535.075,128.456 536.742,129.123 538.5,129.5 Z"/></g>
<g><path style="opacity:1" fill="#f7f4ee" d="M 649.5,152.5 C 648.628,158.191 647.628,163.858 646.5,169.5C 644.801,169.66 643.134,169.494 641.5,169C 637.805,166.49 634.138,163.99 630.5,161.5C 627.048,158.601 623.382,155.934 619.5,153.5C 611.912,149.968 611.579,145.802 618.5,141C 620.949,140.275 623.283,139.275 625.5,138C 630.757,133.887 636.09,130.053 641.5,126.5C 643.042,125.699 644.708,125.366 646.5,125.5C 649.097,134.29 650.097,143.29 649.5,152.5 Z"/></g>
<g><path style="opacity:1" fill="#e5a95c" d="M 528.5,118.5 C 527.09,126.311 525.257,133.978 523,141.5C 522.634,147.175 522.8,152.841 523.5,158.5C 520.858,149.289 520.858,139.955 523.5,130.5C 524.646,126.217 526.313,122.217 528.5,118.5 Z"/></g>
<g><path style="opacity:1" fill="#e5ac64" d="M 649.5,152.5 C 650.097,143.29 649.097,134.29 646.5,125.5C 644.708,125.366 643.042,125.699 641.5,126.5C 643.193,124.234 645.36,123.9 648,125.5C 650.553,134.509 651.053,143.509 649.5,152.5 Z"/></g>
<g><path style="opacity:1" fill="#eab46e" d="M 492.5,130.5 C 492.5,130.167 492.5,129.833 492.5,129.5C 499.581,129.66 501.248,132.66 497.5,138.5C 497.5,136.167 497.5,133.833 497.5,131.5C 495.784,131.371 494.117,131.038 492.5,130.5 Z"/></g>
<g><path style="opacity:1" fill="#fce5bc" d="M 583.5,126.5 C 583.833,126.5 584.167,126.5 584.5,126.5C 590.151,126.231 595.484,127.231 600.5,129.5C 604.016,132.164 606.85,135.497 609,139.5C 609.49,140.793 609.657,142.127 609.5,143.5C 609.925,161.241 601.259,169.741 583.5,169C 577.556,167.195 572.889,163.695 569.5,158.5C 569.34,156.847 568.674,155.514 567.5,154.5C 565.564,143.62 568.897,134.953 577.5,128.5C 579.698,128.125 581.698,127.458 583.5,126.5 Z"/></g>
<g><path style="opacity:1" fill="#fdeed6" d="M 691.5,125.5 C 692.167,125.5 692.833,125.5 693.5,125.5C 690.375,129.89 686.042,132.223 680.5,132.5C 680.5,134.5 680.5,136.5 680.5,138.5C 682.415,138.216 684.081,138.549 685.5,139.5C 683.5,139.5 681.5,139.5 679.5,139.5C 679.5,136.833 679.5,134.167 679.5,131.5C 684.118,130.524 688.118,128.524 691.5,125.5 Z"/></g>
<g><path style="opacity:1" fill="#f0f3f6" d="M 213.5,132.5 C 221.274,131.468 226.774,134.468 230,141.5C 230.667,148.5 230.667,155.5 230,162.5C 226.55,170.804 220.383,173.638 211.5,171C 207.835,169.332 205.668,166.499 205,162.5C 204.333,155.5 204.333,148.5 205,141.5C 206.351,136.985 209.185,133.985 213.5,132.5 Z"/></g>
<g><path style="opacity:1" fill="#96abc8" d="M 288.5,133.5 C 283.695,134.487 278.695,134.821 273.5,134.5C 273.5,145.167 273.5,155.833 273.5,166.5C 272.505,155.679 272.172,144.679 272.5,133.5C 277.833,133.5 283.167,133.5 288.5,133.5 Z"/></g>
<g><path style="opacity:1" fill="#e8a34b" d="M 584.5,128.5 C 602.005,128.511 609.505,137.178 607,154.5C 600.853,165.444 591.686,168.944 579.5,165C 569.257,157.997 566.757,148.83 572,137.5C 575.346,133.102 579.512,130.102 584.5,128.5 Z"/></g>
<g><path style="opacity:1" fill="#f8f4ef" d="M 591.5,134.5 C 601.334,138.841 603.834,145.841 599,155.5C 595.212,160.153 590.378,161.653 584.5,160C 577.558,156.2 575.058,150.367 577,142.5C 577.377,141.058 578.21,140.058 579.5,139.5C 581.512,138.772 583.512,137.938 585.5,137C 586.337,135.989 586.67,134.822 586.5,133.5C 588.292,133.366 589.958,133.699 591.5,134.5 Z"/></g>
<g><path style="opacity:1" fill="#fbe5c6" d="M 591.5,134.5 C 589.958,133.699 588.292,133.366 586.5,133.5C 586.67,134.822 586.337,135.989 585.5,137C 583.512,137.938 581.512,138.772 579.5,139.5C 580.663,137.018 582.663,135.684 585.5,135.5C 585.5,134.5 585.5,133.5 585.5,132.5C 588.082,132.025 590.082,132.692 591.5,134.5 Z"/></g>
<g><path style="opacity:1" fill="#fdf0dd" d="M 492.5,130.5 C 494.117,131.038 495.784,131.371 497.5,131.5C 497.5,133.833 497.5,136.167 497.5,138.5C 492.675,139.207 488.009,140.54 483.5,142.5C 482.504,142.414 481.671,142.748 481,143.5C 480.333,146.167 480.333,148.833 481,151.5C 482.652,152.399 484.152,153.399 485.5,154.5C 483.173,154.753 481.173,154.086 479.5,152.5C 478.167,149.167 478.167,145.833 479.5,142.5C 484.687,139.312 490.354,137.979 496.5,138.5C 496.5,136.5 496.5,134.5 496.5,132.5C 494.62,132.771 493.287,132.104 492.5,130.5 Z"/></g>
<g><path style="opacity:1" fill="#d3deec" d="M 308.5,134.5 C 314.653,133.347 320.986,133.18 327.5,134C 332.364,136.346 333.697,140.013 331.5,145C 325.143,145.346 318.81,145.846 312.5,146.5C 312.918,145.778 313.584,145.278 314.5,145C 320.008,144.633 325.341,143.8 330.5,142.5C 331.32,138.842 329.987,136.509 326.5,135.5C 320.537,134.504 314.537,134.171 308.5,134.5 Z"/></g>
<g><path style="opacity:1" fill="#fdecd2" d="M 505.5,127.5 C 504.762,138.15 504.428,148.817 504.5,159.5C 504.167,159.5 503.833,159.5 503.5,159.5C 503.334,150.494 503.5,141.494 504,132.5C 504.198,130.618 504.698,128.952 505.5,127.5 Z"/></g>
<g><path style="opacity:1" fill="#fdedd5" d="M 523.5,130.5 C 520.858,139.955 520.858,149.289 523.5,158.5C 523.946,161.01 523.28,163.01 521.5,164.5C 520.346,153.501 520.346,142.501 521.5,131.5C 522.183,131.137 522.85,130.804 523.5,130.5 Z"/></g>
<g><path style="opacity:1" fill="#e3ac66" d="M 653.5,131.5 C 654.268,132.263 654.768,133.263 655,134.5C 655.693,144.189 655.527,153.856 654.5,163.5C 654.751,152.997 654.418,142.331 653.5,131.5 Z"/></g>
<g><path style="opacity:1" fill="#e3a658" d="M 679.5,139.5 C 681.5,139.5 683.5,139.5 685.5,139.5C 688.729,140.821 692.062,142.155 695.5,143.5C 696.652,146.106 696.818,148.773 696,151.5C 694.348,152.399 692.848,153.399 691.5,154.5C 690.5,154.5 689.5,154.5 688.5,154.5C 689.844,152.965 691.511,151.632 693.5,150.5C 694.466,148.604 694.799,146.604 694.5,144.5C 690.657,143.147 686.657,142.313 682.5,142C 681.058,141.623 680.058,140.79 679.5,139.5 Z"/></g>
<g><path style="opacity:1" fill="#e4ad68" d="M 483.5,142.5 C 482.445,145.073 482.278,147.739 483,150.5C 486.181,152.338 489.347,154.005 492.5,155.5C 490.139,155.326 487.806,154.993 485.5,154.5C 484.152,153.399 482.652,152.399 481,151.5C 480.333,148.833 480.333,146.167 481,143.5C 481.671,142.748 482.504,142.414 483.5,142.5 Z"/></g>
<g><path style="opacity:1" fill="#fbe6c8" d="M 538.5,129.5 C 536.742,129.123 535.075,128.456 533.5,127.5C 532.667,128.5 531.833,129.5 531,130.5C 527.865,142.126 527.698,153.793 530.5,165.5C 529.736,163.26 528.902,160.927 528,158.5C 527.333,151.167 527.333,143.833 528,136.5C 528.694,132.759 529.861,129.259 531.5,126C 534.35,125.991 536.683,127.158 538.5,129.5 Z"/></g>
<g><path style="opacity:1" fill="#eaf1fa" d="M 152.5,150.5 C 154.832,155.828 157.165,161.162 159.5,166.5C 158.504,166.586 157.671,166.252 157,165.5C 155.028,161.253 153.528,156.919 152.5,152.5C 148.098,152.772 143.765,152.439 139.5,151.5C 139.152,161.867 138.152,171.867 136.5,181.5C 136.5,171.167 136.5,160.833 136.5,150.5C 141.833,150.5 147.167,150.5 152.5,150.5 Z"/></g>
<g><path style="opacity:1" fill="#7186a3" d="M 135.5,149.5 C 141.358,149.178 147.025,149.511 152.5,150.5C 147.167,150.5 141.833,150.5 136.5,150.5C 136.5,160.833 136.5,171.167 136.5,181.5C 136.167,181.5 135.833,181.5 135.5,181.5C 135.5,170.833 135.5,160.167 135.5,149.5 Z"/></g>
<g><path style="opacity:1" fill="#eba040" d="M 567.5,154.5 C 568.674,155.514 569.34,156.847 569.5,158.5C 569.343,159.873 569.51,161.207 570,162.5C 572.581,163.39 573.914,165.057 574,167.5C 569.449,169.305 564.949,171.305 560.5,173.5C 559.007,174.141 558.007,175.141 557.5,176.5C 553.126,179.989 548.126,182.489 542.5,184C 541.978,184.561 541.645,185.228 541.5,186C 546.366,193.082 552.699,198.249 560.5,201.5C 565.926,204.982 571.926,207.315 578.5,208.5C 579.416,208.457 580.083,208.124 580.5,207.5C 581.426,202.666 581.426,197.666 580.5,192.5C 580.5,185.167 580.5,177.833 580.5,170.5C 587.077,171.267 593.243,170.267 599,167.5C 599.464,168.094 599.631,168.761 599.5,169.5C 598.493,172.322 597.66,175.322 597,178.5C 596.946,187.091 596.113,195.591 594.5,204C 595.089,209.753 598.089,211.586 603.5,209.5C 605.569,209.824 605.902,210.658 604.5,212C 593.5,212.667 582.5,212.667 571.5,212C 565.403,209.529 559.403,207.029 553.5,204.5C 544.95,200.12 538.117,193.787 533,185.5C 531.234,182.586 529.734,179.586 528.5,176.5C 528.5,174.5 528.5,172.5 528.5,170.5C 532.85,172.582 536.183,171.582 538.5,167.5C 543.431,163.687 548.431,159.854 553.5,156C 554.745,155.209 556.078,154.709 557.5,154.5C 561.601,154.398 564.267,152.398 565.5,148.5C 566.169,150.631 566.835,152.631 567.5,154.5 Z"/></g>
<g><path style="opacity:1" fill="#fdebd0" d="M 485.5,154.5 C 487.806,154.993 490.139,155.326 492.5,155.5C 497.82,155.426 499.82,158.093 498.5,163.5C 496.784,163.629 495.117,163.962 493.5,164.5C 493.821,162.952 494.821,162.285 496.5,162.5C 496.5,160.5 496.5,158.5 496.5,156.5C 493.15,156.665 489.817,156.498 486.5,156C 485.944,155.617 485.611,155.117 485.5,154.5 Z"/></g>
<g><path style="opacity:1" fill="#e3ab63" d="M 619.5,153.5 C 623.382,155.934 627.048,158.601 630.5,161.5C 625.831,160.019 622.165,157.352 619.5,153.5 Z"/></g>
<g><path style="opacity:1" fill="#d7e2f1" d="M 318.5,155.5 C 323.167,155.5 327.833,155.5 332.5,155.5C 332.827,160.214 332.493,164.88 331.5,169.5C 326.04,171.826 320.373,172.659 314.5,172C 308.315,164.593 309.648,159.093 318.5,155.5 Z"/></g>
<g><path style="opacity:1" fill="#f5f6f6" d="M 328.5,157.5 C 330.414,160.684 331.08,164.351 330.5,168.5C 326.838,169.156 323.172,169.823 319.5,170.5C 314.982,170.979 312.649,168.979 312.5,164.5C 312.716,162.616 313.383,160.949 314.5,159.5C 319.317,158.833 323.983,158.166 328.5,157.5 Z"/></g>
<g><path style="opacity:1" fill="#fde9cd" d="M 652.5,125.5 C 653.85,126.483 654.85,127.816 655.5,129.5C 656.332,140.819 656.832,152.152 657,163.5C 661.136,165.999 665.636,166.999 670.5,166.5C 672.826,153.592 673.159,140.592 671.5,127.5C 672.749,130.087 673.749,132.754 674.5,135.5C 674.666,142.841 674.5,150.174 674,157.5C 673.699,160.974 672.866,164.308 671.5,167.5C 665.243,168.715 659.577,167.382 654.5,163.5C 655.527,153.856 655.693,144.189 655,134.5C 654.768,133.263 654.268,132.263 653.5,131.5C 653.483,129.435 653.15,127.435 652.5,125.5 Z"/></g>
<g><path style="opacity:1" fill="#fdebcf" d="M 688.5,154.5 C 689.5,154.5 690.5,154.5 691.5,154.5C 688.146,156.258 684.479,157.258 680.5,157.5C 680.325,159.621 680.659,161.621 681.5,163.5C 679.631,161.365 678.964,158.698 679.5,155.5C 682.609,155.736 685.609,155.403 688.5,154.5 Z"/></g>
<g><path style="opacity:1" fill="#e6a95d" d="M 609.5,143.5 C 611.07,149.591 610.57,155.591 608,161.5C 606.075,162.88 604.241,164.38 602.5,166C 604.093,166.949 605.426,168.115 606.5,169.5C 604.126,168.314 601.792,168.314 599.5,169.5C 599.631,168.761 599.464,168.094 599,167.5C 593.243,170.267 587.077,171.267 580.5,170.5C 580.5,177.833 580.5,185.167 580.5,192.5C 580.167,192.5 579.833,192.5 579.5,192.5C 579.536,185.132 579.036,177.799 578,170.5C 576.769,169.892 575.436,169.559 574,169.5C 571.992,169.307 570.492,169.974 569.5,171.5C 565.376,172.865 561.376,174.531 557.5,176.5C 558.007,175.141 559.007,174.141 560.5,173.5C 564.949,171.305 569.449,169.305 574,167.5C 573.914,165.057 572.581,163.39 570,162.5C 569.51,161.207 569.343,159.873 569.5,158.5C 572.889,163.695 577.556,167.195 583.5,169C 601.259,169.741 609.925,161.241 609.5,143.5 Z"/></g>
<g><path style="opacity:1" fill="#eec189" d="M 503.5,159.5 C 503.833,159.5 504.167,159.5 504.5,159.5C 504.833,162.167 505.167,164.833 505.5,167.5C 503.96,165.162 503.294,162.495 503.5,159.5 Z"/></g>
<g><path style="opacity:1" fill="#e4ad68" d="M 491.5,166.5 C 490.162,168.67 488.328,170.336 486,171.5C 485.505,173.473 485.338,175.473 485.5,177.5C 483.684,175.383 483.35,173.049 484.5,170.5C 486.85,169.139 489.184,167.806 491.5,166.5 Z"/></g>
<g><path style="opacity:1" fill="#f7f4f2" d="M 560.5,201.5 C 552.699,198.249 546.366,193.082 541.5,186C 541.645,185.228 541.978,184.561 542.5,184C 548.126,182.489 553.126,179.989 557.5,176.5C 561.376,174.531 565.376,172.865 569.5,171.5C 571.764,170.781 574.097,170.448 576.5,170.5C 578.12,182.412 578.786,194.412 578.5,206.5C 572.296,205.388 566.296,203.721 560.5,201.5 Z"/></g>
<g><path style="opacity:1" fill="#f7f5f2" d="M 610.5,172.5 C 618.557,176.197 626.557,179.864 634.5,183.5C 636.519,184.538 636.853,185.872 635.5,187.5C 626.456,197.19 615.456,203.523 602.5,206.5C 601.167,206.5 599.833,206.5 598.5,206.5C 599.964,194.556 600.631,182.556 600.5,170.5C 603.932,170.757 607.266,171.424 610.5,172.5 Z"/></g>
<g><path style="opacity:1" fill="#fce6c5" d="M 525.5,172.5 C 521.397,173.09 517.397,174.09 513.5,175.5C 515.385,173.689 517.719,172.522 520.5,172C 522.387,171.22 524.054,171.387 525.5,172.5 Z"/></g>
<g><path style="opacity:1" fill="#e7b06a" d="M 610.5,172.5 C 610.5,172.167 610.5,171.833 610.5,171.5C 619.351,173.925 627.351,177.925 634.5,183.5C 626.557,179.864 618.557,176.197 610.5,172.5 Z"/></g>
<g><path style="opacity:1" fill="#f8f4f0" d="M 525.5,172.5 C 527.104,173.287 527.771,174.62 527.5,176.5C 528.038,178.117 528.371,179.784 528.5,181.5C 527.209,181.263 526.209,181.596 525.5,182.5C 524.395,183.6 523.062,184.267 521.5,184.5C 519.4,184.477 517.567,185.144 516,186.5C 514.062,184.798 512.228,183.131 510.5,181.5C 509.387,180.054 509.22,178.387 510,176.5C 511.011,175.663 512.178,175.33 513.5,175.5C 517.397,174.09 521.397,173.09 525.5,172.5 Z"/></g>
<g><path style="opacity:1" fill="#fdecd4" d="M 579.5,192.5 C 579.916,197.493 580.249,202.493 580.5,207.5C 580.083,208.124 579.416,208.457 578.5,208.5C 571.926,207.315 565.926,204.982 560.5,201.5C 566.296,203.721 572.296,205.388 578.5,206.5C 578.786,194.412 578.12,182.412 576.5,170.5C 574.097,170.448 571.764,170.781 569.5,171.5C 570.492,169.974 571.992,169.307 574,169.5C 575.436,169.559 576.769,169.892 578,170.5C 579.036,177.799 579.536,185.132 579.5,192.5 Z"/></g>
<g><path style="opacity:1" fill="#fdeed9" d="M 484.5,170.5 C 483.35,173.049 483.684,175.383 485.5,177.5C 485.577,178.75 486.244,179.583 487.5,180C 492.833,180.333 498.167,180.667 503.5,181C 506.587,184.568 505.92,187.068 501.5,188.5C 502.108,187.2 502.775,185.867 503.5,184.5C 503.392,183.558 503.059,182.725 502.5,182C 497.167,181.667 491.833,181.333 486.5,181C 483.082,180.511 481.749,178.511 482.5,175C 482.569,173.014 483.235,171.514 484.5,170.5 Z"/></g>
<g><path style="opacity:1" fill="#e3a75b" d="M 688.5,168.5 C 694.131,170.738 695.131,174.405 691.5,179.5C 685.506,180.761 679.506,180.761 673.5,179.5C 678.975,178.511 684.642,178.178 690.5,178.5C 690.318,176.409 690.652,174.409 691.5,172.5C 690.174,171.358 689.174,170.024 688.5,168.5 Z"/></g>
<g><path style="opacity:1" fill="#fcebd4" d="M 673.5,179.5 C 679.506,180.761 685.506,180.761 691.5,179.5C 690.4,180.558 689.066,181.392 687.5,182C 683.179,182.499 678.846,182.666 674.5,182.5C 674.15,185.453 675.15,187.787 677.5,189.5C 675.094,188.601 673.094,187.101 671.5,185C 672.32,183.2 672.986,181.366 673.5,179.5 Z"/></g>
<g><path style="opacity:1" fill="#fdedd5" d="M 606.5,169.5 C 608.062,169.733 609.395,170.4 610.5,171.5C 610.5,171.833 610.5,172.167 610.5,172.5C 607.266,171.424 603.932,170.757 600.5,170.5C 600.631,182.556 599.964,194.556 598.5,206.5C 599.833,206.5 601.167,206.5 602.5,206.5C 601.081,207.451 599.415,207.784 597.5,207.5C 597.504,194.795 598.17,182.128 599.5,169.5C 601.792,168.314 604.126,168.314 606.5,169.5 Z"/></g>
<g><path style="opacity:1" fill="#faf2e7" d="M 666.5,182.5 C 664.585,182.216 662.919,182.549 661.5,183.5C 658.642,188.488 655.309,188.654 651.5,184C 650.056,183.219 648.723,183.386 647.5,184.5C 650.196,186.509 652.863,188.509 655.5,190.5C 655.179,192.048 654.179,192.715 652.5,192.5C 650.784,192.371 649.117,192.038 647.5,191.5C 645.958,190.837 644.291,190.17 642.5,189.5C 643.127,188.583 643.461,187.583 643.5,186.5C 646.404,182.602 648.571,178.268 650,173.5C 650.804,172.196 651.971,171.529 653.5,171.5C 658.265,172.717 662.931,174.217 667.5,176C 668.58,178.299 668.246,180.466 666.5,182.5 Z"/></g>
<g><path style="opacity:1" fill="#e1ad6b" d="M 661.5,183.5 C 662.376,183.369 663.043,183.702 663.5,184.5C 662.557,187.4 660.89,189.733 658.5,191.5C 657.583,190.873 656.583,190.539 655.5,190.5C 652.863,188.509 650.196,186.509 647.5,184.5C 648.723,183.386 650.056,183.219 651.5,184C 655.309,188.654 658.642,188.488 661.5,183.5 Z"/></g>
<g><path style="opacity:1" fill="#35537e" d="M 422.5,190.5 C 422.389,191.117 422.056,191.617 421.5,192C 415.843,192.499 410.176,192.666 404.5,192.5C 404.5,195.167 404.5,197.833 404.5,200.5C 411.357,202.158 418.357,202.824 425.5,202.5C 418.628,203.749 411.628,203.582 404.5,202C 404,201.5 403.5,201 403,200.5C 402.502,197.518 402.335,194.518 402.5,191.5C 409.224,191.756 415.891,191.423 422.5,190.5 Z"/></g>
<g><path style="opacity:1" fill="#e8b97c" d="M 501.5,189.5 C 500.167,191.5 498.5,193.167 496.5,194.5C 497.167,191.833 498.833,190.167 501.5,189.5 Z"/></g>
<g><path style="opacity:1" fill="#fcebd2" d="M 527.5,176.5 C 527.833,176.5 528.167,176.5 528.5,176.5C 529.734,179.586 531.234,182.586 533,185.5C 538.117,193.787 544.95,200.12 553.5,204.5C 555.253,206.223 557.253,207.723 559.5,209C 563.307,210.428 566.974,211.928 570.5,213.5C 569.167,213.5 568.5,214.167 568.5,215.5C 566.419,214.377 564.253,213.377 562,212.5C 559.993,213.344 558.493,214.677 557.5,216.5C 557.343,212.727 555.676,211.727 552.5,213.5C 550.088,213.306 549.088,211.973 549.5,209.5C 558.613,211.838 558.779,210.838 550,206.5C 548.401,207.071 547.234,208.071 546.5,209.5C 546.5,208.5 546.5,207.5 546.5,206.5C 544.5,206.167 542.5,205.833 540.5,205.5C 540.811,204.522 541.478,203.855 542.5,203.5C 543.609,204.59 544.609,204.59 545.5,203.5C 543.798,200.963 541.631,198.963 539,197.5C 538.5,197.833 538,198.167 537.5,198.5C 540.261,200.987 539.927,202.987 536.5,204.5C 536.664,201.813 536.497,199.146 536,196.5C 534.492,199.059 532.325,200.726 529.5,201.5C 531.425,199.231 533.425,196.897 535.5,194.5C 535.167,194.167 534.833,193.833 534.5,193.5C 533.167,194.5 531.833,195.5 530.5,196.5C 530.167,196 529.833,195.5 529.5,195C 530.871,192.681 531.538,190.181 531.5,187.5C 530.127,187.343 528.793,187.51 527.5,188C 524.664,190.007 521.997,192.174 519.5,194.5C 521.909,194.758 524.242,194.758 526.5,194.5C 524.811,197.65 525.144,200.317 527.5,202.5C 527.196,203.15 526.863,203.817 526.5,204.5C 527.952,205.94 528.952,207.606 529.5,209.5C 527.833,208.167 526.167,206.833 524.5,205.5C 522.542,202.208 520.209,199.208 517.5,196.5C 514.91,191.651 512.576,186.651 510.5,181.5C 512.228,183.131 514.062,184.798 516,186.5C 517.567,185.144 519.4,184.477 521.5,184.5C 519.03,185.884 517.363,187.884 516.5,190.5C 520.071,188.714 523.738,186.881 527.5,185C 528.609,183.187 527.942,182.354 525.5,182.5C 526.209,181.596 527.209,181.263 528.5,181.5C 528.371,179.784 528.038,178.117 527.5,176.5 Z"/></g>
<g><path style="opacity:1" fill="#e4a759" d="M 529.5,201.5 C 528.508,201.328 527.842,201.662 527.5,202.5C 525.144,200.317 524.811,197.65 526.5,194.5C 524.242,194.758 521.909,194.758 519.5,194.5C 521.997,192.174 524.664,190.007 527.5,188C 528.793,187.51 530.127,187.343 531.5,187.5C 531.538,190.181 530.871,192.681 529.5,195C 529.833,195.5 530.167,196 530.5,196.5C 531.833,195.5 533.167,194.5 534.5,193.5C 534.833,193.833 535.167,194.167 535.5,194.5C 533.425,196.897 531.425,199.231 529.5,201.5 Z"/></g>
<g><path style="opacity:1" fill="#dfa965" d="M 525.5,182.5 C 527.942,182.354 528.609,183.187 527.5,185C 523.738,186.881 520.071,188.714 516.5,190.5C 517.363,187.884 519.03,185.884 521.5,184.5C 523.062,184.267 524.395,183.6 525.5,182.5 Z"/></g>
<g><path style="opacity:1" fill="#e8a653" d="M 599.5,169.5 C 598.17,182.128 597.504,194.795 597.5,207.5C 599.415,207.784 601.081,207.451 602.5,206.5C 615.456,203.523 626.456,197.19 635.5,187.5C 634.066,190.111 632.399,192.611 630.5,195C 630.833,195.5 631.167,196 631.5,196.5C 632.833,195.167 634.167,193.833 635.5,192.5C 636.107,192.624 636.44,192.957 636.5,193.5C 633.833,196.5 631.167,199.5 628.5,202.5C 610.8,213.751 591.467,217.418 570.5,213.5C 566.974,211.928 563.307,210.428 559.5,209C 557.253,207.723 555.253,206.223 553.5,204.5C 559.403,207.029 565.403,209.529 571.5,212C 582.5,212.667 593.5,212.667 604.5,212C 605.902,210.658 605.569,209.824 603.5,209.5C 598.089,211.586 595.089,209.753 594.5,204C 596.113,195.591 596.946,187.091 597,178.5C 597.66,175.322 598.493,172.322 599.5,169.5 Z"/></g>
<g><path style="opacity:1" fill="#93a2b8" d="M 215.5,199.5 C 214.833,195.5 214.167,195.5 213.5,199.5C 212.566,198.432 212.232,197.099 212.5,195.5C 213.833,195.5 215.167,195.5 216.5,195.5C 216.768,197.099 216.434,198.432 215.5,199.5 Z"/></g>
<g><path style="opacity:1" fill="#2c4872" d="M 215.5,199.5 C 214.833,199.5 214.167,199.5 213.5,199.5C 214.167,195.5 214.833,195.5 215.5,199.5 Z"/></g>
<g><path style="opacity:1" fill="#96a4b9" d="M 155.5,199.5 C 154.833,195.5 154.167,195.5 153.5,199.5C 152.566,198.432 152.232,197.099 152.5,195.5C 153.833,195.5 155.167,195.5 156.5,195.5C 156.768,197.099 156.434,198.432 155.5,199.5 Z"/></g>
<g><path style="opacity:1" fill="#2d4871" d="M 155.5,199.5 C 154.833,199.5 154.167,199.5 153.5,199.5C 154.167,195.5 154.833,195.5 155.5,199.5 Z"/></g>
<g><path style="opacity:1" fill="#38527d" d="M 282.5,230.5 C 270.754,229.472 270.754,228.472 282.5,227.5C 287.369,226.438 289.202,223.438 288,218.5C 284.873,215.29 281.039,213.957 276.5,214.5C 276.5,213.5 276.5,212.5 276.5,211.5C 279.059,211.802 281.393,211.468 283.5,210.5C 287.475,209.903 288.975,207.57 288,203.5C 283.925,200.397 279.425,199.73 274.5,201.5C 273.261,199.993 273.595,198.826 275.5,198C 278.833,197.333 282.167,197.333 285.5,198C 291.313,200.128 292.813,203.961 290,209.5C 288.786,211.049 287.286,212.215 285.5,213C 292.237,216.819 293.237,221.819 288.5,228C 286.593,229.122 284.593,229.955 282.5,230.5 Z"/></g>
<g><path style="opacity:1" fill="#f9f4ed" d="M 536.5,204.5 C 535.5,205.833 534.5,207.167 533.5,208.5C 532.778,208.918 532.278,209.584 532,210.5C 531.329,209.748 530.496,209.414 529.5,209.5C 528.952,207.606 527.952,205.94 526.5,204.5C 526.863,203.817 527.196,203.15 527.5,202.5C 527.842,201.662 528.508,201.328 529.5,201.5C 532.325,200.726 534.492,199.059 536,196.5C 536.497,199.146 536.664,201.813 536.5,204.5 Z"/></g>
<g><path style="opacity:1" fill="#e3a95f" d="M 682.5,199.5 C 681.933,201.03 681.267,202.53 680.5,204C 674.359,205.187 668.692,204.021 663.5,200.5C 662.265,201.34 661.265,202.34 660.5,203.5C 660.085,201.052 661.085,199.719 663.5,199.5C 668.884,202.006 674.551,203.006 680.5,202.5C 680.285,200.821 680.952,199.821 682.5,199.5 Z"/></g>
<g><path style="opacity:1" fill="#7187a8" d="M 247.5,200.5 C 247.56,199.957 247.893,199.624 248.5,199.5C 249.474,201.743 249.808,204.076 249.5,206.5C 248.833,204.5 248.167,202.5 247.5,200.5 Z"/></g>
<g><path style="opacity:1" fill="#e6a859" d="M 517.5,196.5 C 520.209,199.208 522.542,202.208 524.5,205.5C 522.621,204.659 520.621,204.325 518.5,204.5C 518.442,207.664 517.776,210.664 516.5,213.5C 515.5,213.5 514.5,213.5 513.5,213.5C 514.391,211.391 515.558,209.391 517,207.5C 518.073,203.905 516.739,201.905 513,201.5C 511.301,201.387 510.134,202.053 509.5,203.5C 506.492,203.701 503.492,204.034 500.5,204.5C 498.667,204.415 497.334,203.748 496.5,202.5C 502.698,203.171 508.532,202.171 514,199.5C 518.055,202.362 519.222,201.362 517.5,196.5 Z"/></g>
<g><path style="opacity:1" fill="#e5b87d" d="M 579.5,192.5 C 579.833,192.5 580.167,192.5 580.5,192.5C 581.426,197.666 581.426,202.666 580.5,207.5C 580.249,202.493 579.916,197.493 579.5,192.5 Z"/></g>
<g><path style="opacity:1" fill="#fcedd9" d="M 681.5,195.5 C 684.045,199.042 683.711,202.542 680.5,206C 674.831,206.947 669.497,206.113 664.5,203.5C 662.717,205.023 662.051,207.023 662.5,209.5C 661.5,208.833 660.5,208.167 659.5,207.5C 659.433,206.041 659.766,204.708 660.5,203.5C 661.265,202.34 662.265,201.34 663.5,200.5C 668.692,204.021 674.359,205.187 680.5,204C 681.267,202.53 681.933,201.03 682.5,199.5C 682.167,198.167 681.833,196.833 681.5,195.5 Z"/></g>
<g><path style="opacity:1" fill="#e1aa66" d="M 540.5,205.5 C 538.519,207.144 536.519,208.81 534.5,210.5C 533.702,210.043 533.369,209.376 533.5,208.5C 534.5,207.167 535.5,205.833 536.5,204.5C 539.927,202.987 540.261,200.987 537.5,198.5C 538,198.167 538.5,197.833 539,197.5C 541.631,198.963 543.798,200.963 545.5,203.5C 544.609,204.59 543.609,204.59 542.5,203.5C 541.478,203.855 540.811,204.522 540.5,205.5 Z"/></g>
<g><path style="opacity:1" fill="#677ea2" d="M 134.5,198.5 C 130.5,198.5 126.5,198.5 122.5,198.5C 122.5,209.167 122.5,219.833 122.5,230.5C 121.505,219.679 121.172,208.679 121.5,197.5C 126.032,197.182 130.366,197.515 134.5,198.5 Z"/></g>
<g><path style="opacity:1" fill="#bccadf" d="M 246.5,200.5 C 246.5,202.5 246.5,204.5 246.5,206.5C 244.219,206.077 242.552,206.744 241.5,208.5C 240.033,205.742 239.367,206.075 239.5,209.5C 236.167,209.5 232.833,209.5 229.5,209.5C 232.358,208.834 235.358,208.167 238.5,207.5C 235.572,206.516 232.572,206.183 229.5,206.5C 232.171,205.702 235.004,205.035 238,204.5C 240.434,205.322 242.934,205.656 245.5,205.5C 245.216,203.585 245.549,201.919 246.5,200.5 Z"/></g>
<g><path style="opacity:1" fill="#445d86" d="M 304.5,197.5 C 311.786,196.559 316.619,199.559 319,206.5C 320.31,213.871 319.31,220.871 316,227.5C 306.927,233.193 300.927,230.86 298,220.5C 296.644,213.424 297.644,206.757 301,200.5C 302.145,199.364 303.312,198.364 304.5,197.5 Z"/></g>
<g><path style="opacity:1" fill="#f0f3f6" d="M 304.5,200.5 C 310.105,199.099 313.605,201.099 315,206.5C 315.667,211.5 315.667,216.5 315,221.5C 313.542,227.059 310.042,228.892 304.5,227C 303.283,225.352 302.45,223.519 302,221.5C 301.333,215.833 301.333,210.167 302,204.5C 303.095,203.307 303.928,201.973 304.5,200.5 Z"/></g>
<g><path style="opacity:1" fill="#fdefda" d="M 494.5,195.5 C 493.127,198.383 493.793,200.717 496.5,202.5C 497.334,203.748 498.667,204.415 500.5,204.5C 503.492,204.034 506.492,203.701 509.5,203.5C 505.31,206.415 500.643,207.081 495.5,205.5C 494.585,202.913 493.585,200.413 492.5,198C 492.684,196.624 493.351,195.791 494.5,195.5 Z"/></g>
<g><path style="opacity:1" fill="#f8f4ee" d="M 540.5,205.5 C 542.5,205.833 544.5,206.167 546.5,206.5C 546.5,207.5 546.5,208.5 546.5,209.5C 545.525,211.795 544.192,213.795 542.5,215.5C 539.267,216.987 536.934,215.987 535.5,212.5C 537.605,210.408 539.272,208.075 540.5,205.5 Z"/></g>
<g><path style="opacity:1" fill="#2a4774" d="M 213.5,206.5 C 214.824,210.107 215.491,214.107 215.5,218.5C 215.167,222.5 214.833,226.5 214.5,230.5C 213.502,222.528 213.169,214.528 213.5,206.5 Z"/></g>
<g><path style="opacity:1" fill="#294774" d="M 153.5,206.5 C 154.824,210.107 155.491,214.107 155.5,218.5C 155.167,222.5 154.833,226.5 154.5,230.5C 153.502,222.528 153.169,214.528 153.5,206.5 Z"/></g>
<g><path style="opacity:1" fill="#405983" d="M 330.5,197.5 C 338.685,196.007 343.518,199.34 345,207.5C 346.281,214.543 345.281,221.21 342,227.5C 332.927,233.193 326.927,230.86 324,220.5C 322.644,213.424 323.644,206.757 327,200.5C 328.145,199.364 329.312,198.364 330.5,197.5 Z"/></g>
<g><path style="opacity:1" fill="#f0f2f6" d="M 330.5,200.5 C 334.954,199.617 338.454,200.95 341,204.5C 341.667,210.167 341.667,215.833 341,221.5C 339.593,227.061 336.093,228.895 330.5,227C 329.54,225.581 328.707,224.081 328,222.5C 326.766,214.85 327.599,207.516 330.5,200.5 Z"/></g>
<g><path style="opacity:1" fill="#324c76" d="M 246.5,200.5 C 246.833,200.5 247.167,200.5 247.5,200.5C 248.167,202.5 248.833,204.5 249.5,206.5C 251.167,206.5 252.833,206.5 254.5,206.5C 253.082,208.308 251.082,208.975 248.5,208.5C 248.177,214.69 248.51,220.69 249.5,226.5C 251.116,227.989 253.116,228.989 255.5,229.5C 254.652,230.991 253.319,231.658 251.5,231.5C 248.339,231.411 246.673,229.745 246.5,226.5C 246.5,220.5 246.5,214.5 246.5,208.5C 244.833,208.5 243.167,208.5 241.5,208.5C 242.552,206.744 244.219,206.077 246.5,206.5C 246.5,204.5 246.5,202.5 246.5,200.5 Z"/></g>
<g><path style="opacity:1" fill="#3d5681" d="M 134.5,198.5 C 140.425,199.386 144.258,202.719 146,208.5C 147.192,225.136 139.358,232.469 122.5,230.5C 122.5,219.833 122.5,209.167 122.5,198.5C 126.5,198.5 130.5,198.5 134.5,198.5 Z"/></g>
<g><path style="opacity:1" fill="#f3f4f6" d="M 139.5,204.5 C 140.79,205.058 141.623,206.058 142,207.5C 142.667,211.833 142.667,216.167 142,220.5C 141.051,222.093 139.885,223.426 138.5,224.5C 135.125,225.723 131.125,226.39 126.5,226.5C 126.5,218.5 126.5,210.5 126.5,202.5C 131.005,202.271 135.339,202.937 139.5,204.5 Z"/></g>
<g><path style="opacity:1" fill="#e3ebf9" d="M 139.5,204.5 C 135.339,202.937 131.005,202.271 126.5,202.5C 126.5,210.5 126.5,218.5 126.5,226.5C 131.125,226.39 135.125,225.723 138.5,224.5C 134.69,227.161 130.356,228.161 125.5,227.5C 125.5,218.5 125.5,209.5 125.5,200.5C 128.187,200.336 130.854,200.503 133.5,201C 136.025,201.424 138.025,202.59 139.5,204.5 Z"/></g>
<g><path style="opacity:1" fill="#435b82" d="M 183.5,209.5 C 184.327,214.985 184.827,220.652 185,226.5C 185.173,220.652 185.673,214.985 186.5,209.5C 186.178,215.358 186.511,221.025 187.5,226.5C 188.79,227.935 190.456,228.935 192.5,229.5C 192.137,230.183 191.804,230.85 191.5,231.5C 187.818,232.275 185.318,230.941 184,227.5C 183.501,221.509 183.334,215.509 183.5,209.5 Z"/></g>
<g><path style="opacity:1" fill="#e2e9f4" d="M 208.5,206.5 C 205.348,205.959 202.848,206.959 201,209.5C 200.517,208.552 200.351,207.552 200.5,206.5C 199.5,206.5 198.5,206.5 197.5,206.5C 197.5,214.5 197.5,222.5 197.5,230.5C 198.5,230.5 199.5,230.5 200.5,230.5C 200.334,224.824 200.501,219.157 201,213.5C 201.377,212.058 202.21,211.058 203.5,210.5C 202.903,217.478 202.237,224.478 201.5,231.5C 198.198,233.1 196.031,232.1 195,228.5C 194.517,229.448 194.351,230.448 194.5,231.5C 193.5,231.5 192.5,231.5 191.5,231.5C 191.804,230.85 192.137,230.183 192.5,229.5C 190.456,228.935 188.79,227.935 187.5,226.5C 187.5,220.833 187.5,215.167 187.5,209.5C 188.833,209.5 190.167,209.5 191.5,209.5C 190.791,210.404 189.791,210.737 188.5,210.5C 188.5,215.833 188.5,221.167 188.5,226.5C 190.591,226.318 192.591,226.652 194.5,227.5C 195.331,220.189 195.831,212.856 196,205.5C 198.985,205.158 201.985,204.825 205,204.5C 206.699,204.387 207.866,205.053 208.5,206.5 Z"/></g>
<g><path style="opacity:1" fill="#425a84" d="M 208.5,206.5 C 208.5,207.5 208.5,208.5 208.5,209.5C 206.585,209.216 204.919,209.549 203.5,210.5C 202.21,211.058 201.377,212.058 201,213.5C 200.501,219.157 200.334,224.824 200.5,230.5C 199.5,230.5 198.5,230.5 197.5,230.5C 197.5,222.5 197.5,214.5 197.5,206.5C 198.5,206.5 199.5,206.5 200.5,206.5C 200.351,207.552 200.517,208.552 201,209.5C 202.848,206.959 205.348,205.959 208.5,206.5 Z"/></g>
<g><path style="opacity:1" fill="#a9bbd8" d="M 241.5,208.5 C 243.167,208.5 244.833,208.5 246.5,208.5C 246.5,214.5 246.5,220.5 246.5,226.5C 245.511,221.025 245.178,215.358 245.5,209.5C 243.901,209.768 242.568,209.434 241.5,208.5 Z"/></g>
<g><path style="opacity:1" fill="#f9f4ee" d="M 636.5,218.5 C 635.833,218.833 635.167,219.167 634.5,219.5C 633.235,218.486 632.569,216.986 632.5,215C 632.486,209.961 633.653,209.461 636,213.5C 636.494,215.134 636.66,216.801 636.5,218.5 Z"/></g>
<g><path style="opacity:1" fill="#e6b374" d="M 659.5,207.5 C 660.5,208.167 661.5,208.833 662.5,209.5C 663.11,210.391 663.443,211.391 663.5,212.5C 661.413,211.415 660.08,209.749 659.5,207.5 Z"/></g>
<g><path style="opacity:1" fill="#405881" d="M 165.5,205.5 C 168.881,205.46 172.214,205.793 175.5,206.5C 175.719,207.675 175.386,208.675 174.5,209.5C 171.063,207.922 167.896,208.255 165,210.5C 164.333,211.5 164.333,212.5 165,213.5C 167.583,215.698 170.416,217.531 173.5,219C 177.092,221.971 177.425,225.304 174.5,229C 170.782,231.298 166.782,231.965 162.5,231C 161.269,229.817 161.269,228.651 162.5,227.5C 165.103,228.562 167.77,228.728 170.5,228C 172.648,225.925 172.982,223.592 171.5,221C 167.726,219.698 164.559,217.531 162,214.5C 161.333,212.833 161.333,211.167 162,209.5C 163.376,208.295 164.542,206.962 165.5,205.5 Z"/></g>
<g><path style="opacity:1" fill="#b5c6e0" d="M 191.5,206.5 C 192.833,207.5 192.833,208.5 191.5,209.5C 190.167,209.5 188.833,209.5 187.5,209.5C 187.5,215.167 187.5,220.833 187.5,226.5C 186.511,221.025 186.178,215.358 186.5,209.5C 188.531,209.028 190.198,208.028 191.5,206.5 Z"/></g>
<g><path style="opacity:1" fill="#758bad" d="M 254.5,206.5 C 255.404,207.209 255.737,208.209 255.5,209.5C 253.5,209.5 251.5,209.5 249.5,209.5C 249.5,215.167 249.5,220.833 249.5,226.5C 248.51,220.69 248.177,214.69 248.5,208.5C 251.082,208.975 253.082,208.308 254.5,206.5 Z"/></g>
<g><path style="opacity:1" fill="#fceacf" d="M 661.5,183.5 C 662.919,182.549 664.585,182.216 666.5,182.5C 661.481,193.865 654.481,203.865 645.5,212.5C 642.518,214.474 639.518,216.474 636.5,218.5C 636.66,216.801 636.494,215.134 636,213.5C 633.653,209.461 632.486,209.961 632.5,215C 632.569,216.986 633.235,218.486 634.5,219.5C 633.694,220.728 632.694,221.728 631.5,222.5C 628.378,223.561 625.378,224.895 622.5,226.5C 622.721,225.265 623.388,224.265 624.5,223.5C 624.137,222.817 623.804,222.15 623.5,221.5C 630.314,221.51 632.814,218.177 631,211.5C 629.955,210.627 629.122,209.627 628.5,208.5C 629.967,209.292 631.3,209.292 632.5,208.5C 631.457,206.151 630.124,204.151 628.5,202.5C 631.167,199.5 633.833,196.5 636.5,193.5C 638.605,190.973 640.939,188.64 643.5,186.5C 643.461,187.583 643.127,188.583 642.5,189.5C 644.291,190.17 645.958,190.837 647.5,191.5C 645.833,191.5 644.167,191.5 642.5,191.5C 644.167,195.5 645.833,199.5 647.5,203.5C 648.5,203.5 649.5,203.5 650.5,203.5C 650.093,198.966 652.093,196.299 656.5,195.5C 655.376,194.141 654.042,193.141 652.5,192.5C 654.179,192.715 655.179,192.048 655.5,190.5C 656.583,190.539 657.583,190.873 658.5,191.5C 660.89,189.733 662.557,187.4 663.5,184.5C 663.043,183.702 662.376,183.369 661.5,183.5 Z"/></g>
<g><path style="opacity:1" fill="#e4a95e" d="M 636.5,197.5 C 640.027,199.509 643.194,202.176 646,205.5C 646.483,206.448 646.649,207.448 646.5,208.5C 643.412,207.932 640.412,207.932 637.5,208.5C 639.333,209.968 639.666,211.635 638.5,213.5C 634.921,210.595 632.588,206.929 631.5,202.5C 634.208,203.449 636.874,203.449 639.5,202.5C 638.048,201.06 637.048,199.394 636.5,197.5 Z"/></g>
<g><path style="opacity:1" fill="#e3ab65" d="M 647.5,191.5 C 649.117,192.038 650.784,192.371 652.5,192.5C 654.042,193.141 655.376,194.141 656.5,195.5C 652.093,196.299 650.093,198.966 650.5,203.5C 649.5,203.5 648.5,203.5 647.5,203.5C 645.833,199.5 644.167,195.5 642.5,191.5C 644.167,191.5 645.833,191.5 647.5,191.5 Z"/></g>
<g><path style="opacity:1" fill="#ffe7bf" d="M 646.5,194.5 C 647.5,194.5 648.5,194.5 649.5,194.5C 648.754,198.31 647.754,198.31 646.5,194.5 Z"/></g>
<g><path style="opacity:1" fill="#e0ab67" d="M 628.5,208.5 C 629.122,209.627 629.955,210.627 631,211.5C 632.814,218.177 630.314,221.51 623.5,221.5C 619.074,219.641 617.574,216.308 619,211.5C 621.546,208.814 624.713,207.814 628.5,208.5 Z"/></g>
<g><path style="opacity:1" fill="#fbefde" d="M 622.5,211.5 C 629.536,210.603 631.203,213.103 627.5,219C 621.785,219.401 620.119,216.901 622.5,211.5 Z"/></g>
<g><path style="opacity:1" fill="#2d4975" d="M 191.5,206.5 C 190.198,208.028 188.531,209.028 186.5,209.5C 185.673,214.985 185.173,220.652 185,226.5C 184.827,220.652 184.327,214.985 183.5,209.5C 182.282,208.839 180.949,208.172 179.5,207.5C 180.689,206.571 182.022,206.238 183.5,206.5C 183.5,204.5 183.5,202.5 183.5,200.5C 184.5,200.5 185.5,200.5 186.5,200.5C 186.5,202.5 186.5,204.5 186.5,206.5C 188.167,206.5 189.833,206.5 191.5,206.5 Z"/></g>
<g><path style="opacity:1" fill="#e1ab68" d="M 552.5,213.5 C 552.53,214.497 552.03,215.164 551,215.5C 549.56,214.852 548.06,214.519 546.5,214.5C 547.76,217.098 549.427,219.431 551.5,221.5C 547.223,221.209 544.223,219.209 542.5,215.5C 544.192,213.795 545.525,211.795 546.5,209.5C 547.234,208.071 548.401,207.071 550,206.5C 558.779,210.838 558.613,211.838 549.5,209.5C 549.088,211.973 550.088,213.306 552.5,213.5 Z"/></g>
<g><path style="opacity:1" fill="#fbf3e7" d="M 586.5,222.5 C 586.167,224.5 585.833,226.5 585.5,228.5C 584.596,229.209 584.263,230.209 584.5,231.5C 586.696,231.41 588.863,231.077 591,230.5C 591.833,230.833 592.667,231.167 593.5,231.5C 591.5,231.833 589.5,232.167 587.5,232.5C 585.048,232.461 583.048,231.794 581.5,230.5C 581.833,227.833 582.167,225.167 582.5,222.5C 583.461,220.735 583.795,218.735 583.5,216.5C 584.873,216.343 586.207,216.51 587.5,217C 586.594,218.699 586.261,220.533 586.5,222.5 Z"/></g>
<g><path style="opacity:1" fill="#fbe6c5" d="M 540.5,205.5 C 539.272,208.075 537.605,210.408 535.5,212.5C 536.934,215.987 539.267,216.987 542.5,215.5C 544.223,219.209 547.223,221.209 551.5,221.5C 550.167,222.833 550.167,224.167 551.5,225.5C 543.321,221.32 535.988,215.987 529.5,209.5C 530.496,209.414 531.329,209.748 532,210.5C 532.278,209.584 532.778,208.918 533.5,208.5C 533.369,209.376 533.702,210.043 534.5,210.5C 536.519,208.81 538.519,207.144 540.5,205.5 Z"/></g>
<g><path style="opacity:1" fill="#fcf0de" d="M 628.5,202.5 C 630.124,204.151 631.457,206.151 632.5,208.5C 631.3,209.292 629.967,209.292 628.5,208.5C 624.713,207.814 621.546,208.814 619,211.5C 617.574,216.308 619.074,219.641 623.5,221.5C 623.804,222.15 624.137,222.817 624.5,223.5C 623.388,224.265 622.721,225.265 622.5,226.5C 620.013,227.323 617.679,228.323 615.5,229.5C 611.24,230.585 606.906,231.252 602.5,231.5C 600.833,231.5 599.167,231.5 597.5,231.5C 597.768,229.901 597.434,228.568 596.5,227.5C 595.311,224.286 593.977,221.12 592.5,218C 591.167,217.333 589.833,217.333 588.5,218C 587.901,219.622 587.234,221.122 586.5,222.5C 586.261,220.533 586.594,218.699 587.5,217C 586.207,216.51 584.873,216.343 583.5,216.5C 583.795,218.735 583.461,220.735 582.5,222.5C 582.5,220.833 582.5,219.167 582.5,217.5C 581.5,217.5 580.5,217.5 579.5,217.5C 579.583,225.141 578.416,225.141 576,217.5C 574.989,216.663 573.822,216.33 572.5,216.5C 571.652,220.892 570.652,225.225 569.5,229.5C 570.833,229.5 572.167,229.5 573.5,229.5C 573.201,227.396 573.534,225.396 574.5,223.5C 575.705,224.577 576.372,225.91 576.5,227.5C 576.5,228.833 576.5,230.167 576.5,231.5C 574.5,231.5 572.5,231.5 570.5,231.5C 563.83,230.501 557.497,228.501 551.5,225.5C 550.167,224.167 550.167,222.833 551.5,221.5C 549.427,219.431 547.76,217.098 546.5,214.5C 548.06,214.519 549.56,214.852 551,215.5C 552.03,215.164 552.53,214.497 552.5,213.5C 555.676,211.727 557.343,212.727 557.5,216.5C 557.085,218.747 556.418,220.914 555.5,223C 555.833,223.833 556.167,224.667 556.5,225.5C 557.833,223.833 559.167,222.167 560.5,220.5C 561.086,220.709 561.586,221.043 562,221.5C 562.495,223.473 562.662,225.473 562.5,227.5C 563.5,227.5 564.5,227.5 565.5,227.5C 565.547,223.177 566.547,219.177 568.5,215.5C 568.5,214.167 569.167,213.5 570.5,213.5C 591.467,217.418 610.8,213.751 628.5,202.5 Z"/></g>
<g><path style="opacity:1" fill="#e0aa64" d="M 611.5,213.5 C 613.074,213.937 614.241,214.937 615,216.5C 615.661,219.946 616.495,223.279 617.5,226.5C 616.5,226.5 615.5,226.5 614.5,226.5C 613.699,222.103 612.699,217.769 611.5,213.5 Z"/></g>
<g><path style="opacity:1" fill="#e6a553" d="M 645.5,212.5 C 644.766,213.708 644.433,215.041 644.5,216.5C 648.141,216.652 650.807,218.318 652.5,221.5C 650.564,220.741 648.731,219.741 647,218.5C 645.018,218.99 643.351,219.99 642,221.5C 641.415,222.998 641.915,223.998 643.5,224.5C 644.474,227.928 645.141,231.428 645.5,235C 645.492,236.707 645.158,238.207 644.5,239.5C 644.664,236.813 644.497,234.146 644,231.5C 641.864,227.787 640.364,223.787 639.5,219.5C 637.009,221.058 634.343,222.058 631.5,222.5C 632.694,221.728 633.694,220.728 634.5,219.5C 635.167,219.167 635.833,218.833 636.5,218.5C 639.518,216.474 642.518,214.474 645.5,212.5 Z"/></g>
<g><path style="opacity:1" fill="#d7e1f0" d="M 283.5,210.5 C 281.393,211.468 279.059,211.802 276.5,211.5C 276.5,212.5 276.5,213.5 276.5,214.5C 281.039,213.957 284.873,215.29 288,218.5C 289.202,223.438 287.369,226.438 282.5,227.5C 279.287,227.81 276.287,227.477 273.5,226.5C 278.015,226.728 282.348,226.062 286.5,224.5C 286.84,221.856 286.173,219.523 284.5,217.5C 281.212,216.555 277.879,215.888 274.5,215.5C 274.286,213.856 274.62,212.356 275.5,211C 278.146,210.503 280.813,210.336 283.5,210.5 Z"/></g>
<g><path style="opacity:1" fill="#e2ab66" d="M 568.5,215.5 C 566.547,219.177 565.547,223.177 565.5,227.5C 564.5,227.5 563.5,227.5 562.5,227.5C 562.662,225.473 562.495,223.473 562,221.5C 561.586,221.043 561.086,220.709 560.5,220.5C 559.167,222.167 557.833,223.833 556.5,225.5C 556.167,224.667 555.833,223.833 555.5,223C 556.418,220.914 557.085,218.747 557.5,216.5C 558.493,214.677 559.993,213.344 562,212.5C 564.253,213.377 566.419,214.377 568.5,215.5 Z"/></g>
<g><path style="opacity:1" fill="#feeac6" d="M 561.5,215.5 C 562.833,215.5 564.167,215.5 565.5,215.5C 565.5,216.5 565.5,217.5 565.5,218.5C 564.167,218.5 562.833,218.5 561.5,218.5C 561.5,217.5 561.5,216.5 561.5,215.5 Z"/></g>
<g><path style="opacity:1" fill="#fde7c8" d="M 652.5,221.5 C 652.833,222.167 653.167,222.833 653.5,223.5C 651.037,222.767 648.703,221.767 646.5,220.5C 644.085,220.719 643.085,222.052 643.5,224.5C 641.915,223.998 641.415,222.998 642,221.5C 643.351,219.99 645.018,218.99 647,218.5C 648.731,219.741 650.564,220.741 652.5,221.5 Z"/></g>
<g><path style="opacity:1" fill="#e5b475" d="M 665.5,216.5 C 667.994,218.594 667.994,220.594 665.5,222.5C 665.5,220.5 665.5,218.5 665.5,216.5 Z"/></g>
<g><path style="opacity:1" fill="#e0aa65" d="M 601.5,215.5 C 603.604,215.201 605.604,215.534 607.5,216.5C 606.675,217.386 605.675,217.719 604.5,217.5C 604.998,221.575 604.998,225.575 604.5,229.5C 603.914,229.291 603.414,228.957 603,228.5C 602.498,225.487 601.998,222.487 601.5,219.5C 595.206,218.707 595.206,217.374 601.5,215.5 Z"/></g>
<g><path style="opacity:1" fill="#fdf0dd" d="M 535.5,221.5 C 534.64,224.911 533.474,228.244 532,231.5C 531.503,234.146 531.336,236.813 531.5,239.5C 530.059,234.218 530.725,229.051 533.5,224C 532.902,222.699 531.902,221.865 530.5,221.5C 526.482,224.01 522.148,225.677 517.5,226.5C 522.215,224.579 526.549,221.913 530.5,218.5C 531.94,219.952 533.606,220.952 535.5,221.5 Z"/></g>
<g><path style="opacity:1" fill="#e5aa60" d="M 582.5,222.5 C 582.167,225.167 581.833,227.833 581.5,230.5C 579.041,230.69 577.374,229.69 576.5,227.5C 576.372,225.91 575.705,224.577 574.5,223.5C 573.534,225.396 573.201,227.396 573.5,229.5C 572.167,229.5 570.833,229.5 569.5,229.5C 570.652,225.225 571.652,220.892 572.5,216.5C 573.822,216.33 574.989,216.663 576,217.5C 578.416,225.141 579.583,225.141 579.5,217.5C 580.5,217.5 581.5,217.5 582.5,217.5C 582.5,219.167 582.5,220.833 582.5,222.5 Z"/></g>
<g><path style="opacity:1" fill="#3a547e" d="M 229.5,206.5 C 232.572,206.183 235.572,206.516 238.5,207.5C 235.358,208.167 232.358,208.834 229.5,209.5C 228.206,210.29 227.039,211.29 226,212.5C 222.901,224.89 227.401,229.89 239.5,227.5C 239.5,228.5 239.5,229.5 239.5,230.5C 226.416,232.586 220.583,226.919 222,213.5C 223.736,210.261 226.236,207.927 229.5,206.5 Z"/></g>
<g><path style="opacity:1" fill="#435b85" d="M 356.5,197.5 C 364.125,196.06 368.958,199.06 371,206.5C 372.31,213.871 371.31,220.871 368,227.5C 358.864,233.193 352.864,230.86 350,220.5C 348.719,213.457 349.719,206.79 353,200.5C 354.145,199.364 355.312,198.364 356.5,197.5 Z"/></g>
<g><path style="opacity:1" fill="#eff2f6" d="M 357.5,200.5 C 361.684,199.704 364.85,201.037 367,204.5C 367.667,210.833 367.667,217.167 367,223.5C 364.585,227.351 361.085,228.518 356.5,227C 355.283,225.352 354.45,223.519 354,221.5C 353.333,216.5 353.333,211.5 354,206.5C 354.564,204.113 355.73,202.113 357.5,200.5 Z"/></g>
<g><path style="opacity:1" fill="#e6ae66" d="M 535.5,221.5 C 536.97,224.686 536.47,227.686 534,230.5C 531.496,237.868 533.996,241.202 541.5,240.5C 540.866,241.947 539.699,242.613 538,242.5C 535.489,242.16 533.322,241.16 531.5,239.5C 531.336,236.813 531.503,234.146 532,231.5C 533.474,228.244 534.64,224.911 535.5,221.5 Z"/></g>
<g><path style="opacity:1" fill="#64799c" d="M 273.5,226.5 C 276.287,227.477 279.287,227.81 282.5,227.5C 270.754,228.472 270.754,229.472 282.5,230.5C 280.034,231.634 277.367,231.801 274.5,231C 271.221,229.732 270.888,228.232 273.5,226.5 Z"/></g>
<g><path style="opacity:1" fill="#e1ab66" d="M 596.5,227.5 C 596.719,228.675 596.386,229.675 595.5,230.5C 592.494,227.943 589.494,227.943 586.5,230.5C 585.702,230.043 585.369,229.376 585.5,228.5C 585.833,226.5 586.167,224.5 586.5,222.5C 587.234,221.122 587.901,219.622 588.5,218C 589.833,217.333 591.167,217.333 592.5,218C 593.977,221.12 595.311,224.286 596.5,227.5 Z"/></g>
<g><path style="opacity:1" fill="#eba040" d="M 524.5,205.5 C 526.167,206.833 527.833,208.167 529.5,209.5C 535.988,215.987 543.321,221.32 551.5,225.5C 557.497,228.501 563.83,230.501 570.5,231.5C 570.5,232.167 570.833,232.5 571.5,232.5C 571.611,233.117 571.944,233.617 572.5,234C 581.5,234.667 590.5,234.667 599.5,234C 600.737,233.768 601.737,233.268 602.5,232.5C 607.312,233.035 611.645,232.035 615.5,229.5C 617.679,228.323 620.013,227.323 622.5,226.5C 625.378,224.895 628.378,223.561 631.5,222.5C 634.343,222.058 637.009,221.058 639.5,219.5C 640.364,223.787 641.864,227.787 644,231.5C 644.497,234.146 644.664,236.813 644.5,239.5C 641.887,240.435 639.221,240.602 636.5,240C 635.211,238.198 633.544,237.031 631.5,236.5C 629.401,231.645 626.067,230.478 621.5,233C 620.748,233.671 620.414,234.504 620.5,235.5C 620.906,240.74 620.24,245.74 618.5,250.5C 615.215,250.79 612.215,250.123 609.5,248.5C 607.902,246.302 606.569,243.969 605.5,241.5C 605.5,240.833 605.5,240.167 605.5,239.5C 604.666,238.252 603.333,237.585 601.5,237.5C 599.955,237.511 598.622,237.844 597.5,238.5C 596.883,238.611 596.383,238.944 596,239.5C 595.39,242.827 594.89,246.161 594.5,249.5C 594.598,251.553 593.931,253.22 592.5,254.5C 590.473,254.662 588.473,254.495 586.5,254C 585.24,251.699 583.907,249.532 582.5,247.5C 581.662,247.158 581.328,246.492 581.5,245.5C 582.487,241.114 580.821,238.78 576.5,238.5C 574.667,238.585 573.334,239.252 572.5,240.5C 570.698,244.375 568.364,248.041 565.5,251.5C 563.604,252.466 561.604,252.799 559.5,252.5C 558.833,251.833 558.167,251.167 557.5,250.5C 556.617,245.897 556.283,241.23 556.5,236.5C 555.903,232.525 553.57,231.025 549.5,232C 548.177,232.816 547.511,233.983 547.5,235.5C 545.475,237.196 543.475,238.863 541.5,240.5C 533.996,241.202 531.496,237.868 534,230.5C 536.47,227.686 536.97,224.686 535.5,221.5C 533.606,220.952 531.94,219.952 530.5,218.5C 526.549,221.913 522.215,224.579 517.5,226.5C 509.886,224.098 508.553,219.765 513.5,213.5C 514.5,213.5 515.5,213.5 516.5,213.5C 517.776,210.664 518.442,207.664 518.5,204.5C 520.621,204.325 522.621,204.659 524.5,205.5 Z"/></g>
<g><path style="opacity:1" fill="#fbe5c6" d="M 576.5,227.5 C 577.374,229.69 579.041,230.69 581.5,230.5C 583.048,231.794 585.048,232.461 587.5,232.5C 589.5,232.167 591.5,231.833 593.5,231.5C 592.667,231.167 591.833,230.833 591,230.5C 588.863,231.077 586.696,231.41 584.5,231.5C 584.263,230.209 584.596,229.209 585.5,228.5C 585.369,229.376 585.702,230.043 586.5,230.5C 589.494,227.943 592.494,227.943 595.5,230.5C 596.386,229.675 596.719,228.675 596.5,227.5C 597.434,228.568 597.768,229.901 597.5,231.5C 599.167,231.5 600.833,231.5 602.5,231.5C 602.5,231.833 602.5,232.167 602.5,232.5C 592.167,233.833 581.833,233.833 571.5,232.5C 570.833,232.5 570.5,232.167 570.5,231.5C 572.5,231.5 574.5,231.5 576.5,231.5C 576.5,230.167 576.5,228.833 576.5,227.5 Z"/></g>
<g><path style="opacity:1" fill="#fee7bf" d="M 589.5,221.5 C 590.586,221.62 591.253,222.287 591.5,223.5C 591.167,224.167 590.833,224.833 590.5,225.5C 589.571,224.311 589.238,222.978 589.5,221.5 Z"/></g>
<g><path style="opacity:1" fill="#e8b36f" d="M 615.5,229.5 C 611.645,232.035 607.312,233.035 602.5,232.5C 602.5,232.167 602.5,231.833 602.5,231.5C 606.906,231.252 611.24,230.585 615.5,229.5 Z"/></g>
<g><path style="opacity:1" fill="#e2a85e" d="M 571.5,232.5 C 581.833,233.833 592.167,233.833 602.5,232.5C 601.737,233.268 600.737,233.768 599.5,234C 590.5,234.667 581.5,234.667 572.5,234C 571.944,233.617 571.611,233.117 571.5,232.5 Z"/></g>
<g><path style="opacity:1" fill="#e3b276" d="M 597.5,238.5 C 598.622,237.844 599.955,237.511 601.5,237.5C 603.333,237.585 604.666,238.252 605.5,239.5C 602.946,238.612 600.279,238.279 597.5,238.5 Z"/></g>
<g><path style="opacity:1" fill="#fdeeda" d="M 556.5,236.5 C 555.515,240.634 555.182,244.968 555.5,249.5C 554.674,244.684 554.174,239.684 554,234.5C 551.701,233.42 549.534,233.754 547.5,235.5C 547.511,233.983 548.177,232.816 549.5,232C 553.57,231.025 555.903,232.525 556.5,236.5 Z"/></g>
<g><path style="opacity:1" fill="#fae2bb" d="M 581.5,245.5 C 579.926,243.898 579.259,241.898 579.5,239.5C 577.05,239.298 574.717,239.631 572.5,240.5C 573.334,239.252 574.667,238.585 576.5,238.5C 580.821,238.78 582.487,241.114 581.5,245.5 Z"/></g>
<g><path style="opacity:1" fill="#e4b06d" d="M 631.5,236.5 C 633.544,237.031 635.211,238.198 636.5,240C 639.221,240.602 641.887,240.435 644.5,239.5C 642.022,242.699 639.022,243.199 635.5,241C 633.959,239.629 632.625,238.129 631.5,236.5 Z"/></g>
<g><path style="opacity:1" fill="#f5cf9c" d="M 556.5,236.5 C 556.283,241.23 556.617,245.897 557.5,250.5C 556.833,250.167 556.167,249.833 555.5,249.5C 555.182,244.968 555.515,240.634 556.5,236.5 Z"/></g>
<g><path style="opacity:1" fill="#e5ad66" d="M 597.5,238.5 C 597.483,242.534 596.483,246.201 594.5,249.5C 594.89,246.161 595.39,242.827 596,239.5C 596.383,238.944 596.883,238.611 597.5,238.5 Z"/></g>
<g><path style="opacity:1" fill="#fce8cc" d="M 597.5,238.5 C 600.279,238.279 602.946,238.612 605.5,239.5C 605.5,240.167 605.5,240.833 605.5,241.5C 603.283,240.631 600.95,240.298 598.5,240.5C 598.664,243.187 598.497,245.854 598,248.5C 596.424,251.186 594.591,253.52 592.5,255.5C 592.5,255.167 592.5,254.833 592.5,254.5C 593.931,253.22 594.598,251.553 594.5,249.5C 596.483,246.201 597.483,242.534 597.5,238.5 Z"/></g>
<g><path style="opacity:1" fill="#f7dbb7" d="M 609.5,249.5 C 611.82,251.226 614.487,251.893 617.5,251.5C 615.989,253.441 613.989,253.941 611.5,253C 610.177,252.184 609.511,251.017 609.5,249.5 Z"/></g>
<g><path style="opacity:1" fill="#e5aa60" d="M 620.5,235.5 C 621.647,239.646 621.814,243.98 621,248.5C 620.578,250.426 619.411,251.426 617.5,251.5C 614.487,251.893 611.82,251.226 609.5,249.5C 609.5,249.167 609.5,248.833 609.5,248.5C 612.215,250.123 615.215,250.79 618.5,250.5C 620.24,245.74 620.906,240.74 620.5,235.5 Z"/></g>
<g><path style="opacity:1" fill="#fcebd3" d="M 572.5,240.5 C 571.666,245.321 569.666,249.654 566.5,253.5C 565.333,253.833 564.167,254.167 563,254.5C 561.319,254.392 560.152,253.725 559.5,252.5C 561.604,252.799 563.604,252.466 565.5,251.5C 568.364,248.041 570.698,244.375 572.5,240.5 Z"/></g>
<g><path style="opacity:1" fill="#e0a65e" d="M 582.5,247.5 C 583.907,249.532 585.24,251.699 586.5,254C 588.473,254.495 590.473,254.662 592.5,254.5C 592.5,254.833 592.5,255.167 592.5,255.5C 585.705,256.993 582.371,254.326 582.5,247.5 Z"/></g>
</svg>
